<?xml version="1.0" encoding="utf-8"?>
<!-- Generator: Adobe Illustrator 18.1.1, SVG Export Plug-In . SVG Version: 6.00 Build 0)  -->
<svg version="1.1" id="Layer_1" xmlns="http://www.w3.org/2000/svg" xmlns:xlink="http://www.w3.org/1999/xlink" x="0px" y="0px"
	 viewBox="0 0 118.093 54.986" enable-background="new 0 0 118.093 54.986" xml:space="preserve">
<path fill="none" d="M117.181,48.539c-3.195,3.384-2.338,7.857-11.371,6.021c-19.72-3.999-36.932-13.023-53.123-19.865
	c-0.038-1.614,0.626-3.1,2.945-2.983c1.386,0.065,2.374,1.255,3.478,1.697c3.649,1.456,8.317,2.279,12.67,3.607
	c11.588,3.532,26.155,8.096,35.072,12.654c1.087-1.332,2.348-4.945,1.939-7.048c-1.366-1.605-2.588-3.281-3.794-4.965
	c-3.562,1.267-3.637-2.958-4.79-4.661c-2.513-0.062-4.268-1.266-6.339-1.229c-1.856,0.033-2.506,1.194-4.329,1.386
	c-1.951-3.803,6.59-4.093,9.347-1.973c-8.883-9.962-20.872-16.046-37.535-22.463C48.289,3.687,34.412,1.25,21.805,5.697
	c-5.544,1.95-11.163,3.295-14.861,5.471c-1.737,1.027-3.163,3.723-4.935,3.587c-2.167-0.169-2.086-2.626-1.951-2.834
	c0.7-1.116,4.262-2.527,6.449-3.58c4.054-1.955,6.762-2.649,9.553-4.928C22.9,1.857,29.063-0.13,36.729,0.007
	c5.375,0.091,11.198,0.807,16.765,1.953c1.953,0.404,5.481,1.133,6.389,2.157c1.987-0.693,3.814,0.899,5.638,1.578
	c3.532,1.323,7.049,2.193,10.22,3.679c9.492,4.437,17.212,11.092,24.829,16.784c0.129,0.222,0.241,0.451-0.121,0.44
	c2.48,1.243,6.141,5.028,8.547,7.553c0.51-3.971-1.173-8.793-2.014-13.646c-0.753-4.342,0.179-8.838,0.071-12.398
	c-0.076-2.616-0.435-6.322,4.606-5.708c0.888,1.461,0.927,3.344,1.347,5.036c0.77-1.008,1.385-0.067,2.558,0.634
	c-0.124,10.609,4.59,22.67,1.445,34.468c0.313,0.797,0.888,1.462,0.85,2.432C115.921,45.803,117.059,47.189,117.181,48.539z
	 M109.567,51.935c0.485,0.076,0.97,0.153,1.456,0.229c0.559-1.483,0.459-2.637,0.097-3.661
	C110.967,50.068,109.845,50.513,109.567,51.935z M79.235,43.017c5.466,1.512,10.826,4.789,17.604,5.532
	C91.522,46.773,86.445,44.028,79.235,43.017z M114.766,39.656c0.605-5.23,0.221-11.562-0.474-15.932
	c-0.133-0.845,0.534-2.119-0.85-2.432C113.117,27.906,112.292,34.22,114.766,39.656z"/>
</svg>
