<?xml version="1.0" encoding="utf-8"?>
<!-- Generator: Adobe Illustrator 18.1.1, SVG Export Plug-In . SVG Version: 6.00 Build 0)  -->
<svg version="1.1"
	 id="Layer_1" xmlns:rdf="http://www.w3.org/1999/02/22-rdf-syntax-ns#" xmlns:cc="http://creativecommons.org/ns#" xmlns:svg="http://www.w3.org/2000/svg" xmlns:dc="http://purl.org/dc/elements/1.1/"
	 xmlns="http://www.w3.org/2000/svg" xmlns:xlink="http://www.w3.org/1999/xlink" x="0px" y="0px" viewBox="0 0 206.629 45"
	 enable-background="new 0 0 206.629 45" xml:space="preserve">
<g id="g6715">
	<path id="path6717" d="M47.577,10.931c0,0.974,0.121,1.889,0.365,2.748c0.242,0.857,0.612,1.604,1.104,2.238
		c0.492,0.634,1.109,1.137,1.851,1.507c0.74,0.371,1.612,0.555,2.618,0.555c0.547,0,1.072-0.077,1.575-0.229
		c0.502-0.151,0.946-0.401,1.331-0.746c0.366-0.325,0.682-0.723,0.952-1.194c0.269-0.473,0.534-1.028,0.799-1.667l0.609,0.151
		c-0.174,0.67-0.31,1.3-0.412,1.888c-0.101,0.589-0.188,1.218-0.258,1.888c-0.802,0.234-1.597,0.416-2.382,0.548
		c-0.787,0.131-1.576,0.198-2.367,0.198c-1.148,0-2.206-0.179-3.175-0.533c-0.969-0.356-1.807-0.857-2.513-1.507
		c-0.703-0.649-1.255-1.433-1.65-2.352c-0.396-0.918-0.594-1.94-0.594-3.067c0-1.298,0.238-2.434,0.715-3.402
		c0.479-0.969,1.125-1.778,1.941-2.428c0.817-0.649,1.764-1.134,2.839-1.454c1.076-0.32,2.212-0.48,3.41-0.48
		c0.619,0,1.281,0.046,1.987,0.138c0.704,0.091,1.362,0.218,1.971,0.38c-0.062,0.649-0.1,1.265-0.113,1.849
		c-0.017,0.584-0.023,1.2-0.023,1.849l-0.641,0.062c-0.04-0.599-0.16-1.119-0.357-1.561c-0.198-0.441-0.461-0.808-0.791-1.097
		c-0.33-0.29-0.713-0.502-1.148-0.638c-0.438-0.138-0.914-0.207-1.432-0.207c-1.015,0-1.909,0.161-2.679,0.481
		c-0.772,0.318-1.42,0.766-1.94,1.339c-0.523,0.573-0.919,1.264-1.188,2.069C47.711,9.066,47.577,9.957,47.577,10.931z"/>
	<path id="path6719" d="M65.814,13.594c0.009-0.07,0.015-0.157,0.015-0.259v-1.11c0-0.517-0.124-0.947-0.373-1.287
		c-0.248-0.339-0.646-0.508-1.195-0.508c-0.295,0-0.545,0.052-0.753,0.16c-0.208,0.106-0.381,0.245-0.519,0.417
		c-0.137,0.174-0.237,0.371-0.303,0.594c-0.067,0.223-0.1,0.456-0.1,0.7c-0.162,0.132-0.386,0.199-0.67,0.199
		c-0.234,0-0.454-0.054-0.661-0.16c-0.209-0.107-0.314-0.267-0.314-0.479c0-0.163,0.063-0.33,0.192-0.503
		c0.126-0.172,0.293-0.342,0.501-0.51c0.208-0.167,0.439-0.327,0.693-0.479c0.253-0.153,0.513-0.284,0.775-0.396
		c0.68-0.293,1.35-0.441,2.011-0.441c0.323,0,0.628,0.042,0.913,0.128c0.283,0.086,0.532,0.223,0.746,0.412
		c0.212,0.188,0.38,0.429,0.501,0.722c0.123,0.295,0.184,0.645,0.184,1.051c0,0.609-0.011,1.313-0.031,2.108
		c-0.02,0.796-0.029,1.682-0.029,2.655c0,0.397,0.076,0.706,0.228,0.931c0.152,0.223,0.364,0.334,0.641,0.334
		c0.242,0,0.507-0.087,0.791-0.26l0.274,0.412c-0.234,0.223-0.521,0.406-0.86,0.548c-0.342,0.142-0.684,0.212-1.028,0.212
		c-0.355,0-0.684-0.095-0.982-0.289c-0.299-0.192-0.5-0.522-0.601-0.99c-0.102,0.072-0.259,0.178-0.473,0.32
		c-0.212,0.143-0.456,0.288-0.73,0.434c-0.273,0.147-0.567,0.277-0.883,0.389c-0.314,0.111-0.613,0.168-0.898,0.168
		c-0.335,0-0.638-0.062-0.912-0.183c-0.274-0.123-0.51-0.287-0.707-0.495c-0.198-0.208-0.352-0.446-0.457-0.715
		c-0.107-0.27-0.161-0.555-0.161-0.861c0-0.517,0.149-0.961,0.449-1.331c0.3-0.371,0.692-0.658,1.181-0.86
		c0.354-0.142,0.829-0.286,1.423-0.435C64.284,13.79,64.991,13.676,65.814,13.594z M65.784,16.776c0-0.426,0.004-0.842,0.015-1.249
		c0.01-0.405,0.016-0.821,0.016-1.248c-0.276,0.031-0.552,0.068-0.831,0.114c-0.278,0.047-0.55,0.104-0.814,0.175
		c-0.264,0.072-0.512,0.163-0.745,0.274c-0.233,0.111-0.432,0.244-0.595,0.396c-0.253,0.225-0.38,0.514-0.38,0.868
		c0,0.425,0.108,0.787,0.328,1.08c0.218,0.295,0.556,0.442,1.011,0.442c0.326,0,0.665-0.076,1.021-0.229
		C65.164,17.249,65.489,17.041,65.784,16.776z"/>
	<path id="path6721" d="M75.024,18.511c-0.163,0-0.358-0.001-0.588-0.007c-0.229-0.006-0.474-0.008-0.738-0.008
		c-0.263,0-0.533-0.001-0.806-0.007c-0.274-0.004-0.533-0.007-0.777-0.007c-0.396,0-0.775,0.004-1.141,0.014
		c-0.365,0.011-0.69,0.015-0.975,0.015l-0.047-0.486c0.337-0.03,0.603-0.073,0.801-0.13c0.197-0.055,0.349-0.148,0.456-0.282
		c0.106-0.131,0.178-0.312,0.214-0.54c0.034-0.229,0.054-0.535,0.054-0.921V12.21c0-0.284-0.017-0.507-0.047-0.669
		c-0.03-0.163-0.094-0.292-0.19-0.389c-0.097-0.097-0.241-0.17-0.433-0.221c-0.194-0.051-0.453-0.102-0.777-0.153l-0.047-0.426
		c0.275-0.05,0.56-0.109,0.854-0.175c0.295-0.066,0.578-0.138,0.853-0.213c0.275-0.075,0.53-0.151,0.769-0.227
		c0.238-0.077,0.435-0.145,0.586-0.206l0.184,0.121c-0.051,0.316-0.082,0.627-0.091,0.937c-0.012,0.309-0.017,0.616-0.017,0.92
		c0.325-0.397,0.621-0.723,0.891-0.982c0.27-0.259,0.515-0.461,0.739-0.609c0.222-0.146,0.429-0.248,0.616-0.305
		c0.187-0.055,0.371-0.082,0.555-0.082c0.264,0,0.509,0.066,0.731,0.197c0.222,0.133,0.335,0.35,0.335,0.655
		c0,0.203-0.102,0.427-0.305,0.669c-0.203,0.244-0.473,0.467-0.807,0.67c-0.183-0.161-0.374-0.287-0.57-0.372
		c-0.199-0.087-0.414-0.129-0.646-0.129c-0.234,0-0.489,0.101-0.763,0.304c-0.273,0.203-0.497,0.498-0.669,0.883
		c-0.051,0.112-0.082,0.211-0.091,0.296c-0.012,0.087-0.017,0.201-0.017,0.343v3.729c0,0.244,0.018,0.439,0.054,0.585
		c0.035,0.147,0.119,0.262,0.252,0.343c0.131,0.081,0.323,0.136,0.577,0.168c0.254,0.029,0.604,0.055,1.05,0.075L75.024,18.511z"/>
	<path id="path6723" d="M85.587,16.823c-0.325,0.426-0.66,0.768-1.004,1.026c-0.345,0.259-0.674,0.46-0.99,0.601
		c-0.313,0.142-0.604,0.239-0.867,0.289c-0.264,0.051-0.472,0.077-0.623,0.077c-0.631,0-1.209-0.117-1.736-0.352
		c-0.527-0.232-0.981-0.552-1.363-0.959c-0.38-0.405-0.675-0.879-0.883-1.422c-0.208-0.544-0.312-1.12-0.312-1.728
		c0-0.681,0.124-1.312,0.374-1.896c0.248-0.583,0.578-1.092,0.989-1.529c0.41-0.437,0.884-0.778,1.423-1.028
		c0.537-0.248,1.092-0.372,1.659-0.372c0.456,0,0.89,0.073,1.301,0.22c0.412,0.147,0.771,0.357,1.073,0.631
		c0.306,0.274,0.549,0.604,0.73,0.989c0.184,0.386,0.274,0.817,0.274,1.294v0.213l-0.014,0.214
		c-0.052,0.274-0.194,0.411-0.428,0.411h-5.754c0.01,0.7,0.117,1.298,0.319,1.796c0.203,0.498,0.465,0.903,0.784,1.217
		c0.319,0.315,0.677,0.546,1.073,0.693c0.396,0.147,0.787,0.22,1.172,0.22c0.416,0,0.813-0.072,1.188-0.213
		c0.376-0.141,0.771-0.42,1.188-0.836L85.587,16.823z M83.334,12.818c0.203,0,0.337-0.039,0.397-0.114
		c0.059-0.076,0.091-0.205,0.091-0.389c0-0.274-0.046-0.533-0.138-0.775c-0.092-0.244-0.223-0.457-0.396-0.64
		c-0.173-0.183-0.386-0.325-0.64-0.426c-0.254-0.102-0.537-0.153-0.853-0.153c-0.244,0-0.487,0.055-0.73,0.168
		c-0.243,0.112-0.472,0.274-0.685,0.486c-0.214,0.214-0.398,0.474-0.556,0.784c-0.158,0.31-0.268,0.663-0.328,1.058h3.838V12.818z"
		/>
	<path id="path6725" d="M94.782,16.823c-0.325,0.426-0.66,0.768-1.005,1.026c-0.346,0.259-0.675,0.46-0.989,0.601
		c-0.314,0.142-0.604,0.239-0.868,0.289c-0.265,0.051-0.472,0.077-0.624,0.077c-0.63,0-1.207-0.117-1.734-0.352
		c-0.529-0.232-0.983-0.552-1.363-0.959c-0.381-0.405-0.675-0.879-0.883-1.422c-0.209-0.544-0.312-1.12-0.312-1.728
		c0-0.681,0.124-1.312,0.372-1.896c0.249-0.583,0.578-1.092,0.989-1.529c0.412-0.437,0.886-0.778,1.423-1.028
		c0.539-0.248,1.092-0.372,1.66-0.372c0.456,0,0.891,0.073,1.301,0.22c0.411,0.147,0.77,0.357,1.074,0.631
		c0.304,0.274,0.547,0.604,0.729,0.989c0.184,0.386,0.274,0.817,0.274,1.294v0.213l-0.015,0.214
		c-0.052,0.274-0.193,0.411-0.426,0.411H88.63c0.01,0.7,0.116,1.298,0.32,1.796c0.202,0.498,0.463,0.903,0.782,1.217
		c0.321,0.315,0.678,0.546,1.075,0.693c0.396,0.147,0.785,0.22,1.171,0.22c0.416,0,0.813-0.072,1.188-0.213
		c0.377-0.141,0.771-0.42,1.187-0.836L94.782,16.823z M92.529,12.818c0.202,0,0.335-0.039,0.396-0.114
		c0.061-0.075,0.091-0.205,0.091-0.389c0-0.274-0.046-0.533-0.137-0.775c-0.091-0.244-0.224-0.457-0.396-0.64
		c-0.172-0.183-0.386-0.325-0.639-0.426c-0.256-0.102-0.539-0.153-0.854-0.153c-0.244,0-0.486,0.055-0.73,0.168
		c-0.244,0.112-0.473,0.274-0.686,0.486c-0.213,0.214-0.397,0.474-0.556,0.784c-0.155,0.31-0.266,0.663-0.327,1.058h3.838V12.818z"
		/>
	<path id="path6727" d="M101.206,18.511c-0.162,0-0.357-0.001-0.586-0.007c-0.229-0.006-0.474-0.008-0.738-0.008
		c-0.264,0-0.532-0.001-0.807-0.007c-0.275-0.004-0.533-0.007-0.777-0.007c-0.395,0-0.775,0.004-1.142,0.014
		c-0.364,0.011-0.689,0.015-0.973,0.015l-0.047-0.486c0.335-0.03,0.602-0.073,0.799-0.13c0.198-0.055,0.35-0.148,0.458-0.282
		c0.105-0.131,0.176-0.312,0.212-0.54c0.035-0.229,0.054-0.535,0.054-0.921V12.21c0-0.284-0.016-0.507-0.046-0.669
		c-0.031-0.163-0.094-0.292-0.19-0.389c-0.096-0.097-0.242-0.17-0.434-0.221c-0.193-0.051-0.452-0.102-0.777-0.153l-0.045-0.426
		c0.273-0.05,0.558-0.109,0.852-0.175c0.295-0.066,0.58-0.138,0.854-0.213c0.274-0.075,0.529-0.151,0.768-0.227
		c0.24-0.077,0.436-0.145,0.588-0.206l0.183,0.121c-0.052,0.316-0.081,0.627-0.092,0.937c-0.01,0.309-0.016,0.616-0.016,0.92
		c0.325-0.397,0.621-0.723,0.892-0.982c0.268-0.259,0.514-0.461,0.737-0.609c0.223-0.146,0.429-0.248,0.617-0.305
		c0.188-0.055,0.372-0.082,0.556-0.082c0.263,0,0.507,0.066,0.729,0.197c0.224,0.133,0.335,0.35,0.335,0.655
		c0,0.203-0.102,0.427-0.305,0.669c-0.202,0.244-0.471,0.467-0.806,0.67c-0.184-0.161-0.373-0.287-0.571-0.372
		c-0.197-0.087-0.414-0.129-0.646-0.129c-0.234,0-0.488,0.101-0.761,0.304c-0.275,0.203-0.497,0.498-0.67,0.883
		c-0.052,0.112-0.081,0.211-0.092,0.296c-0.01,0.087-0.016,0.201-0.016,0.343v3.729c0,0.244,0.018,0.439,0.053,0.585
		c0.035,0.147,0.121,0.262,0.252,0.343c0.131,0.081,0.323,0.136,0.579,0.168c0.253,0.029,0.604,0.055,1.05,0.075L101.206,18.511z"/>
	<path id="path6729" d="M112.7,10.931c0,0.974,0.12,1.889,0.363,2.748c0.244,0.857,0.611,1.604,1.104,2.238
		c0.492,0.634,1.109,1.137,1.85,1.507c0.74,0.371,1.613,0.555,2.617,0.555c0.55,0,1.074-0.077,1.576-0.229
		c0.502-0.151,0.945-0.401,1.332-0.746c0.364-0.325,0.684-0.723,0.951-1.194c0.27-0.473,0.536-1.028,0.799-1.667l0.608,0.151
		c-0.171,0.67-0.31,1.3-0.411,1.888c-0.101,0.589-0.188,1.218-0.259,1.888c-0.801,0.234-1.597,0.416-2.381,0.548
		c-0.787,0.131-1.576,0.198-2.367,0.198c-1.146,0-2.205-0.179-3.175-0.533c-0.969-0.356-1.805-0.857-2.512-1.507
		c-0.705-0.649-1.256-1.433-1.652-2.352c-0.395-0.918-0.594-1.94-0.594-3.067c0-1.298,0.238-2.434,0.717-3.402
		c0.476-0.969,1.122-1.778,1.941-2.428c0.814-0.649,1.762-1.134,2.838-1.454c1.076-0.32,2.213-0.48,3.41-0.48
		c0.619,0,1.281,0.046,1.985,0.138c0.705,0.091,1.362,0.218,1.972,0.38c-0.061,0.649-0.098,1.265-0.113,1.849
		c-0.016,0.584-0.023,1.2-0.023,1.849l-0.639,0.062c-0.041-0.599-0.159-1.119-0.357-1.561c-0.199-0.441-0.462-0.808-0.791-1.097
		c-0.33-0.29-0.714-0.502-1.15-0.638c-0.438-0.138-0.912-0.207-1.43-0.207c-1.017,0-1.908,0.161-2.68,0.481
		c-0.771,0.318-1.418,0.766-1.941,1.339c-0.521,0.573-0.918,1.264-1.188,2.069C112.834,9.066,112.7,9.957,112.7,10.931L112.7,10.931
		z"/>
	<path id="path6731" d="M125.79,14.265c0-0.65,0.119-1.265,0.357-1.842c0.238-0.579,0.562-1.082,0.975-1.507
		c0.412-0.426,0.895-0.763,1.453-1.013c0.559-0.247,1.157-0.372,1.797-0.372c0.69,0,1.318,0.119,1.889,0.357
		c0.566,0.238,1.052,0.563,1.453,0.974c0.4,0.411,0.709,0.893,0.928,1.447c0.219,0.553,0.328,1.144,0.328,1.773
		c0,0.66-0.118,1.276-0.357,1.849c-0.238,0.573-0.563,1.073-0.976,1.499c-0.409,0.426-0.898,0.765-1.462,1.013
		c-0.563,0.248-1.163,0.373-1.803,0.373c-0.689,0-1.316-0.12-1.881-0.358c-0.563-0.238-1.045-0.563-1.445-0.974
		c-0.401-0.412-0.711-0.893-0.928-1.447C125.899,15.485,125.79,14.894,125.79,14.265z M130.569,18.07
		c0.446,0,0.829-0.106,1.148-0.32c0.32-0.212,0.584-0.486,0.793-0.821c0.207-0.336,0.359-0.711,0.455-1.127
		c0.098-0.416,0.146-0.833,0.146-1.249c0-0.486-0.054-0.984-0.159-1.492c-0.106-0.507-0.275-0.966-0.511-1.376
		c-0.233-0.412-0.536-0.748-0.905-1.013c-0.369-0.264-0.818-0.396-1.348-0.396c-0.456,0-0.846,0.104-1.164,0.313
		c-0.318,0.209-0.582,0.479-0.783,0.813c-0.203,0.335-0.354,0.711-0.449,1.127c-0.096,0.416-0.146,0.832-0.146,1.248
		c0,0.467,0.056,0.954,0.168,1.461c0.11,0.508,0.284,0.969,0.519,1.385c0.232,0.417,0.535,0.762,0.903,1.036
		C129.608,17.933,130.051,18.07,130.569,18.07L130.569,18.07z"/>
	<path id="path6733" d="M139.657,2.178c-0.041,0.265-0.076,0.566-0.107,0.905c-0.029,0.34-0.051,0.682-0.066,1.028
		c-0.018,0.345-0.025,0.67-0.029,0.974c-0.007,0.305-0.009,0.548-0.009,0.73v10.96c0,0.244,0.015,0.439,0.046,0.585
		c0.029,0.147,0.102,0.262,0.213,0.343c0.11,0.081,0.272,0.136,0.486,0.168c0.214,0.029,0.51,0.055,0.885,0.075l-0.031,0.563
		c-0.324,0-0.713-0.004-1.164-0.015c-0.453-0.01-0.922-0.014-1.408-0.014c-0.396,0-0.787,0.004-1.172,0.014
		c-0.387,0.011-0.721,0.015-1.006,0.015l-0.045-0.486c0.346-0.03,0.621-0.073,0.83-0.13c0.207-0.055,0.366-0.148,0.479-0.282
		c0.111-0.131,0.186-0.312,0.22-0.54c0.036-0.228,0.056-0.535,0.056-0.921V4.781c0-0.295-0.017-0.526-0.047-0.693
		c-0.029-0.168-0.102-0.296-0.211-0.389c-0.113-0.091-0.273-0.161-0.482-0.213c-0.207-0.049-0.488-0.106-0.844-0.167l-0.045-0.441
		c0.305-0.062,0.617-0.126,0.942-0.198c0.325-0.07,0.638-0.142,0.937-0.212c0.299-0.072,0.571-0.142,0.813-0.214
		c0.244-0.071,0.442-0.138,0.594-0.198L139.657,2.178L139.657,2.178z"/>
	<path id="path6735" d="M145.243,2.178c-0.039,0.265-0.074,0.566-0.104,0.905c-0.03,0.34-0.054,0.682-0.069,1.028
		c-0.015,0.345-0.025,0.67-0.029,0.974c-0.006,0.305-0.008,0.548-0.008,0.73v10.96c0,0.244,0.014,0.439,0.047,0.585
		c0.029,0.147,0.101,0.262,0.211,0.343c0.111,0.081,0.274,0.136,0.488,0.168c0.213,0.029,0.508,0.055,0.883,0.075l-0.029,0.563
		c-0.326,0-0.715-0.004-1.164-0.015c-0.452-0.01-0.922-0.014-1.408-0.014c-0.396,0-0.788,0.004-1.173,0.014
		c-0.388,0.011-0.722,0.015-1.005,0.015l-0.047-0.486c0.346-0.03,0.623-0.073,0.83-0.13c0.209-0.055,0.369-0.148,0.479-0.282
		c0.11-0.131,0.185-0.312,0.222-0.54c0.033-0.228,0.053-0.535,0.053-0.921V4.781c0-0.295-0.017-0.526-0.047-0.693
		c-0.029-0.168-0.102-0.296-0.211-0.389c-0.111-0.091-0.271-0.161-0.479-0.213c-0.208-0.049-0.491-0.106-0.847-0.167l-0.045-0.441
		c0.305-0.062,0.617-0.126,0.942-0.198c0.325-0.07,0.64-0.142,0.938-0.212c0.299-0.072,0.57-0.142,0.813-0.214
		c0.243-0.071,0.442-0.138,0.595-0.198L145.243,2.178L145.243,2.178z"/>
	<path id="path6737" d="M155.474,16.823c-0.325,0.426-0.66,0.768-1.005,1.026c-0.346,0.259-0.676,0.46-0.989,0.601
		c-0.315,0.142-0.605,0.239-0.868,0.289c-0.265,0.051-0.472,0.077-0.624,0.077c-0.63,0-1.209-0.117-1.733-0.352
		c-0.529-0.232-0.983-0.552-1.363-0.959c-0.38-0.405-0.676-0.879-0.883-1.422c-0.209-0.544-0.313-1.12-0.313-1.728
		c0-0.681,0.124-1.312,0.372-1.896c0.249-0.583,0.578-1.092,0.989-1.529c0.412-0.437,0.886-0.778,1.425-1.028
		c0.537-0.248,1.09-0.372,1.658-0.372c0.457,0,0.892,0.073,1.301,0.22c0.411,0.147,0.77,0.357,1.074,0.631
		c0.304,0.274,0.548,0.604,0.729,0.989c0.183,0.385,0.273,0.817,0.273,1.294v0.213l-0.016,0.214
		c-0.051,0.274-0.192,0.411-0.426,0.411h-5.755c0.011,0.7,0.117,1.298,0.32,1.796c0.202,0.498,0.464,0.903,0.782,1.217
		c0.32,0.315,0.679,0.546,1.074,0.693c0.396,0.147,0.785,0.22,1.172,0.22c0.416,0,0.813-0.072,1.188-0.213
		c0.375-0.141,0.771-0.42,1.187-0.836L155.474,16.823L155.474,16.823z M153.221,12.818c0.201,0,0.335-0.039,0.396-0.114
		c0.061-0.075,0.092-0.205,0.092-0.389c0-0.274-0.047-0.533-0.139-0.775c-0.091-0.244-0.224-0.457-0.396-0.64
		c-0.172-0.183-0.387-0.325-0.641-0.426c-0.254-0.102-0.537-0.153-0.852-0.153c-0.244,0-0.487,0.055-0.73,0.168
		c-0.244,0.112-0.471,0.274-0.685,0.486c-0.214,0.214-0.397,0.474-0.558,0.784c-0.154,0.31-0.266,0.663-0.326,1.058h3.838V12.818z"
		/>
	<path id="path6739" d="M157.178,13.138c0-0.507,0.104-0.981,0.313-1.423c0.209-0.442,0.486-0.824,0.838-1.149
		c0.35-0.325,0.754-0.579,1.211-0.761c0.455-0.183,0.938-0.274,1.444-0.274c0.812,0,1.513,0.172,2.103,0.517
		c0.11,0.072,0.215,0.12,0.312,0.145c0.097,0.026,0.211,0.038,0.343,0.038c0.11-0.009,0.191-0.016,0.244-0.016l2.328-0.167
		l0.105,0.122l-0.09,0.883h-2.146c0.416,0.539,0.624,1.133,0.624,1.782c0,0.598-0.12,1.126-0.358,1.583
		c-0.238,0.456-0.547,0.84-0.928,1.149c-0.381,0.309-0.803,0.543-1.264,0.7c-0.461,0.157-0.916,0.235-1.362,0.235
		c-0.395,0-0.817-0.051-1.265-0.151c-0.231,0.112-0.428,0.277-0.584,0.495c-0.16,0.218-0.237,0.423-0.237,0.616
		c0,0.142,0.054,0.266,0.159,0.374c0.107,0.107,0.238,0.194,0.396,0.266c0.157,0.072,0.323,0.123,0.502,0.153
		c0.178,0.03,0.338,0.045,0.479,0.045c0.396,0,0.809-0.008,1.239-0.022c0.432-0.017,0.834-0.023,1.211-0.023
		c0.404,0,0.813,0.037,1.218,0.114c0.405,0.076,0.772,0.212,1.104,0.411c0.329,0.199,0.596,0.469,0.801,0.813
		c0.201,0.344,0.304,0.781,0.304,1.309c0,0.639-0.142,1.24-0.427,1.804c-0.285,0.565-0.68,1.05-1.187,1.462
		c-0.509,0.411-1.113,0.736-1.82,0.974c-0.705,0.237-1.479,0.358-2.32,0.358c-0.437,0-0.885-0.06-1.348-0.176
		c-0.461-0.117-0.88-0.294-1.255-0.534c-0.377-0.238-0.684-0.537-0.922-0.896c-0.237-0.361-0.356-0.785-0.356-1.272
		c0-0.345,0.064-0.662,0.197-0.951c0.131-0.289,0.305-0.557,0.518-0.799c0.213-0.244,0.451-0.467,0.716-0.67
		c0.263-0.204,0.526-0.396,0.791-0.579c-0.416-0.153-0.774-0.355-1.072-0.609c-0.3-0.254-0.448-0.573-0.448-0.959
		c0-0.172,0.057-0.354,0.174-0.549c0.117-0.192,0.258-0.38,0.42-0.563c0.16-0.182,0.334-0.349,0.517-0.501
		c0.185-0.153,0.34-0.284,0.474-0.396C157.741,15.478,157.178,14.508,157.178,13.138z M161.243,19.806
		c-0.334,0-0.611,0.003-0.83,0.007c-0.219,0.006-0.398,0.022-0.539,0.054c-0.143,0.03-0.27,0.076-0.381,0.137
		c-0.113,0.061-0.229,0.142-0.351,0.244c-0.315,0.265-0.548,0.561-0.701,0.89c-0.151,0.33-0.23,0.673-0.23,1.028
		c0,0.416,0.103,0.766,0.305,1.05c0.204,0.284,0.464,0.515,0.777,0.693c0.314,0.178,0.664,0.306,1.051,0.387
		c0.385,0.082,0.762,0.123,1.127,0.123c0.455,0,0.887-0.048,1.294-0.145c0.403-0.096,0.76-0.25,1.063-0.463
		c0.305-0.213,0.547-0.486,0.723-0.821c0.18-0.335,0.268-0.736,0.268-1.204c0-0.426-0.091-0.78-0.271-1.064
		c-0.184-0.285-0.448-0.498-0.793-0.641c-0.295-0.131-0.619-0.211-0.975-0.236c-0.355-0.024-0.766-0.037-1.234-0.037L161.243,19.806
		L161.243,19.806z M161.137,15.832c0.324,0,0.604-0.076,0.836-0.228c0.234-0.153,0.423-0.352,0.57-0.595
		c0.147-0.243,0.256-0.517,0.328-0.821c0.071-0.304,0.106-0.604,0.106-0.898c0-0.365-0.038-0.733-0.115-1.104
		c-0.075-0.371-0.198-0.703-0.364-0.996c-0.168-0.295-0.386-0.534-0.654-0.715c-0.27-0.183-0.602-0.274-0.997-0.274
		c-0.334,0-0.618,0.073-0.853,0.221c-0.236,0.148-0.426,0.343-0.57,0.585c-0.148,0.244-0.254,0.516-0.319,0.816
		c-0.065,0.299-0.101,0.601-0.101,0.904c0,0.346,0.041,0.702,0.121,1.066c0.082,0.365,0.205,0.7,0.373,1.004
		c0.168,0.305,0.387,0.554,0.655,0.747C160.422,15.735,160.749,15.832,161.137,15.832L161.137,15.832z"/>
	<path id="path6741" d="M175.049,16.823c-0.325,0.426-0.659,0.768-1.004,1.026c-0.346,0.259-0.678,0.46-0.989,0.601
		c-0.315,0.142-0.605,0.239-0.868,0.289c-0.266,0.051-0.473,0.077-0.624,0.077c-0.63,0-1.207-0.117-1.735-0.352
		c-0.529-0.232-0.981-0.552-1.361-0.959c-0.381-0.405-0.676-0.879-0.885-1.422c-0.207-0.544-0.312-1.12-0.312-1.728
		c0-0.681,0.125-1.312,0.373-1.896c0.249-0.583,0.578-1.092,0.987-1.529c0.412-0.437,0.888-0.778,1.427-1.028
		c0.534-0.248,1.09-0.372,1.657-0.372c0.457,0,0.892,0.073,1.302,0.22c0.411,0.147,0.771,0.357,1.073,0.631
		c0.305,0.274,0.549,0.604,0.73,0.989c0.185,0.386,0.274,0.817,0.274,1.294v0.213l-0.016,0.214
		c-0.052,0.274-0.192,0.411-0.427,0.411h-5.755c0.012,0.7,0.118,1.298,0.318,1.796c0.205,0.498,0.467,0.903,0.785,1.217
		c0.32,0.315,0.678,0.546,1.072,0.693c0.396,0.147,0.788,0.22,1.174,0.22c0.416,0,0.812-0.072,1.188-0.213
		c0.376-0.141,0.771-0.42,1.188-0.836L175.049,16.823L175.049,16.823z M172.795,12.818c0.203,0,0.336-0.039,0.397-0.114
		c0.06-0.076,0.092-0.205,0.092-0.389c0-0.274-0.047-0.533-0.138-0.775c-0.091-0.244-0.224-0.457-0.396-0.64
		c-0.172-0.183-0.387-0.325-0.641-0.426c-0.255-0.102-0.537-0.153-0.854-0.153c-0.243,0-0.485,0.055-0.73,0.168
		c-0.243,0.112-0.471,0.274-0.685,0.486c-0.215,0.214-0.398,0.474-0.557,0.784c-0.158,0.31-0.268,0.663-0.326,1.058h3.836V12.818z"
		/>
</g>
<g id="g6743">
	<path id="path6745" d="M191.317,11.639c0,1.881-0.568,3.553-1.709,5.012c-1.141,1.46-2.322,2.189-3.547,2.189
		c-0.656,0-1.188-0.245-1.594-0.736c-0.404-0.491-0.606-1.259-0.606-2.304c0-0.706,0.157-1.519,0.474-2.44
		c0.317-0.92,0.728-1.685,1.229-2.292c0.113-0.137,0.244-0.303,0.391-0.498c0.43-0.561,0.94-1.031,1.533-1.413
		c0.592-0.38,1.194-0.57,1.811-0.57c0.568,0,1.048,0.237,1.436,0.711C191.122,9.772,191.317,10.553,191.317,11.639z M184.991,17.174
		c0,0.374,0.088,0.649,0.264,0.827c0.174,0.178,0.455,0.269,0.845,0.269c0.382,0,0.767-0.188,1.155-0.561
		c0.695-0.681,1.396-1.853,2.093-3.515c0.696-1.663,1.046-2.972,1.046-3.928c0-0.34-0.086-0.61-0.255-0.809
		c-0.171-0.198-0.365-0.299-0.585-0.299c-0.479,0-0.979,0.28-1.496,0.839c-0.885,0.941-1.646,2.239-2.286,3.894
		C185.25,15.235,184.991,16.331,184.991,17.174z"/>
	<path id="path6747" d="M187.071,23.231c0.163-0.072,0.284-0.108,0.365-0.108c0.275,0,0.52,0.187,0.729,0.559
		c0.092,0.161,0.18,0.295,0.27,0.4c0.202,0.202,0.422,0.304,0.654,0.304c0.343,0,0.765-0.194,1.267-0.585
		c0.423-0.445,0.817-1.087,1.188-1.921c0.367-0.832,0.693-1.729,0.979-2.687l1.191-4.1c0.072-0.252,0.145-0.528,0.22-0.828
		l0.802-2.872c0.221-0.729,0.387-1.244,0.5-1.543c-0.146-0.008-0.257-0.012-0.328-0.012c-0.058,0-0.188,0.005-0.39,0.018
		c-0.203,0.012-0.681,0.018-1.436,0.018c0.024-0.227,0.049-0.428,0.072-0.607c0.172-0.017,0.354-0.029,0.549-0.037l1.762-0.061
		c0.357-1.192,0.765-2.311,1.218-3.357c0.284-0.625,0.688-1.252,1.217-1.886c0.405-0.478,0.888-0.864,1.447-1.155
		c0.268-0.146,0.612-0.219,1.032-0.219c0.522,0,0.939,0.14,1.254,0.419c0.318,0.28,0.476,0.571,0.476,0.87
		c0,0.194-0.065,0.364-0.194,0.506c-0.129,0.142-0.275,0.213-0.438,0.213c-0.212,0-0.398-0.069-0.566-0.208
		c-0.166-0.138-0.285-0.353-0.359-0.645c-0.057-0.21-0.133-0.361-0.23-0.449c-0.104-0.082-0.243-0.122-0.413-0.122
		c-0.162,0-0.305,0.032-0.427,0.097c-0.253,0.129-0.528,0.377-0.827,0.743c-0.211,0.267-0.438,0.661-0.675,1.179
		c-0.24,0.519-0.501,1.258-0.778,2.22c-0.281,0.961-0.438,1.554-0.469,1.781l0.328,0.025l1.145-0.025
		c0.049,0,0.174,0.008,0.377,0.025c0.008,0.073,0.013,0.129,0.013,0.169c0,0.123-0.023,0.273-0.073,0.451l-2.007,0.073l-0.401,1.363
		l-1.021,3.673c-0.057,0.194-0.105,0.353-0.146,0.474c-0.147,0.381-0.235,0.668-0.269,0.864l-0.898,2.882
		c-0.398,1.112-0.794,2.027-1.188,2.749c-0.395,0.722-0.883,1.371-1.467,1.947c-0.43,0.413-0.883,0.718-1.361,0.912
		c-0.309,0.129-0.71,0.193-1.204,0.193c-0.681,0-1.153-0.105-1.417-0.32c-0.264-0.213-0.396-0.469-0.396-0.768
		C186.743,23.565,186.853,23.359,187.071,23.231L187.071,23.231z"/>
</g>
<g id="g6749">
	<path id="path6751" d="M47.577,34.846c0,0.975,0.121,1.891,0.365,2.748c0.242,0.858,0.612,1.604,1.104,2.238
		c0.492,0.634,1.109,1.137,1.851,1.507c0.74,0.371,1.612,0.556,2.618,0.556c0.547,0,1.072-0.076,1.575-0.23
		c0.502-0.151,0.946-0.401,1.331-0.746c0.366-0.325,0.682-0.722,0.952-1.194c0.269-0.473,0.534-1.027,0.799-1.668l0.609,0.151
		c-0.174,0.671-0.31,1.301-0.412,1.888c-0.101,0.59-0.188,1.219-0.258,1.889c-0.802,0.233-1.597,0.418-2.382,0.549
		c-0.787,0.132-1.576,0.197-2.367,0.197c-1.148,0-2.206-0.179-3.175-0.532c-0.969-0.354-1.807-0.857-2.513-1.507
		c-0.703-0.649-1.255-1.435-1.65-2.353c-0.396-0.919-0.594-1.94-0.594-3.067c0-1.299,0.238-2.433,0.715-3.402
		c0.479-0.969,1.125-1.777,1.941-2.428c0.817-0.649,1.764-1.135,2.839-1.455c1.076-0.319,2.212-0.477,3.41-0.477
		c0.619,0,1.281,0.046,1.987,0.136c0.704,0.092,1.362,0.219,1.971,0.381c-0.062,0.649-0.1,1.267-0.113,1.849
		c-0.017,0.584-0.023,1.2-0.023,1.851l-0.641,0.062c-0.04-0.599-0.16-1.119-0.357-1.562c-0.198-0.44-0.461-0.806-0.791-1.096
		c-0.33-0.289-0.713-0.501-1.148-0.639c-0.438-0.139-0.914-0.205-1.432-0.205c-1.015,0-1.909,0.16-2.679,0.479
		c-0.772,0.318-1.42,0.767-1.94,1.34c-0.523,0.572-0.919,1.264-1.188,2.068C47.711,32.981,47.577,33.872,47.577,34.846
		L47.577,34.846z"/>
	<path id="path6753" d="M72.527,37.023h-5.069l-1.171,2.998c-0.204,0.578-0.305,0.943-0.305,1.097
		c0,0.263,0.124,0.446,0.372,0.547c0.249,0.103,0.693,0.168,1.332,0.198l-0.045,0.549c-0.377,0-0.797-0.006-1.264-0.016
		c-0.468-0.011-0.929-0.018-1.385-0.018c-0.377,0-0.764,0.007-1.165,0.018c-0.402,0.01-0.789,0.016-1.164,0.016l-0.031-0.52
		c0.396-0.029,0.721-0.078,0.974-0.145c0.254-0.064,0.476-0.187,0.663-0.365c0.187-0.177,0.365-0.421,0.532-0.73
		c0.169-0.31,0.363-0.723,0.587-1.239l4.368-10.308c0.122-0.304,0.226-0.569,0.313-0.799c0.085-0.229,0.181-0.474,0.281-0.736
		l0.959-0.123c0.111,0.488,0.231,0.933,0.357,1.341c0.127,0.405,0.246,0.776,0.357,1.11l3.426,9.924
		c0.152,0.447,0.289,0.798,0.412,1.051c0.121,0.253,0.263,0.449,0.426,0.586c0.161,0.137,0.367,0.231,0.615,0.282
		c0.248,0.05,0.57,0.091,0.968,0.12l-0.047,0.55c-0.426,0-0.895-0.006-1.408-0.017c-0.512-0.01-1.026-0.017-1.545-0.017
		c-0.426,0-0.857,0.007-1.294,0.017c-0.436,0.011-0.868,0.017-1.292,0.017l-0.047-0.519c0.568-0.041,0.974-0.108,1.218-0.205
		c0.242-0.098,0.365-0.277,0.365-0.543c0-0.109-0.021-0.239-0.061-0.387c-0.042-0.146-0.091-0.313-0.153-0.494L72.527,37.023
		L72.527,37.023z M67.808,36.141h4.431l-2.039-6.027L67.808,36.141z"/>
	<path id="path6755" d="M87.582,28.331c-0.416,0.03-0.752,0.079-1.011,0.146c-0.26,0.065-0.461,0.166-0.603,0.305
		c-0.142,0.136-0.238,0.326-0.288,0.57c-0.053,0.243-0.077,0.553-0.077,0.929v9.665c0,0.347,0.021,0.631,0.061,0.854
		c0.042,0.223,0.131,0.399,0.268,0.525c0.138,0.127,0.329,0.215,0.579,0.266c0.248,0.051,0.58,0.076,0.996,0.076h0.806
		c0.59,0,1.072-0.047,1.447-0.144c0.374-0.098,0.692-0.26,0.95-0.486c0.26-0.229,0.485-0.531,0.678-0.905
		c0.193-0.376,0.405-0.838,0.64-1.385l0.579,0.137c-0.082,0.295-0.157,0.608-0.229,0.942c-0.07,0.336-0.137,0.666-0.197,0.988
		c-0.061,0.326-0.113,0.631-0.153,0.916c-0.041,0.283-0.066,0.517-0.075,0.699h-2.314c-0.671,0-1.248-0.002-1.734-0.007
		c-0.489-0.007-0.905-0.008-1.25-0.008c-0.344,0-0.645-0.003-0.898-0.009c-0.253-0.004-0.477-0.008-0.669-0.008h-0.532
		c-0.204,0-0.428,0.004-0.67,0.008c-0.244,0.006-0.487,0.009-0.73,0.009c-0.245,0-0.475,0.001-0.694,0.008
		c-0.218,0.004-0.396,0.007-0.538,0.007l-0.046-0.517c0.416-0.031,0.752-0.079,1.012-0.145c0.259-0.066,0.458-0.168,0.602-0.305
		c0.143-0.137,0.238-0.325,0.29-0.563c0.049-0.238,0.075-0.551,0.075-0.938V29.716c0-0.243-0.023-0.446-0.068-0.608
		c-0.047-0.162-0.138-0.297-0.273-0.403c-0.138-0.106-0.336-0.185-0.595-0.236c-0.258-0.051-0.606-0.086-1.042-0.107l0.046-0.547
		c0.162,0,0.362,0.002,0.601,0.008c0.238,0.004,0.494,0.007,0.769,0.007c0.275,0,0.553,0.003,0.836,0.008
		c0.286,0.005,0.549,0.008,0.793,0.008c0.192,0,0.412-0.003,0.654-0.008c0.244-0.005,0.488-0.008,0.73-0.008
		c0.244,0,0.474-0.003,0.693-0.007c0.217-0.006,0.397-0.008,0.54-0.008L87.582,28.331L87.582,28.331z"/>
	<path id="path6757" d="M97.113,41.909c0.396-0.031,0.715-0.079,0.959-0.146c0.242-0.066,0.435-0.168,0.57-0.304
		c0.137-0.137,0.23-0.325,0.281-0.563C98.975,40.659,99,40.346,99,39.96V29.716c0-0.243-0.02-0.446-0.061-0.608
		c-0.04-0.162-0.13-0.297-0.267-0.403c-0.138-0.106-0.332-0.185-0.587-0.236c-0.253-0.051-0.588-0.086-1.004-0.107l0.031-0.547
		c0.161,0,0.359,0.002,0.593,0.008c0.234,0.004,0.482,0.007,0.745,0.007c0.275,0,0.552,0.003,0.831,0.008
		c0.278,0.005,0.54,0.008,0.784,0.008c0.192,0,0.407-0.003,0.646-0.008c0.239-0.005,0.476-0.008,0.709-0.008
		c0.232,0,0.453-0.003,0.661-0.007c0.208-0.006,0.383-0.008,0.526-0.008l0.046,0.517c-0.397,0.029-0.717,0.079-0.96,0.145
		c-0.243,0.066-0.437,0.168-0.578,0.306c-0.142,0.136-0.238,0.323-0.289,0.563c-0.052,0.238-0.076,0.544-0.076,0.921v10.26
		c0,0.242,0.02,0.447,0.061,0.608c0.04,0.163,0.13,0.296,0.266,0.402c0.139,0.106,0.334,0.187,0.588,0.237
		c0.253,0.051,0.592,0.084,1.02,0.105l-0.03,0.548c-0.163,0-0.364-0.002-0.602-0.007c-0.239-0.007-0.495-0.008-0.769-0.008
		c-0.265,0-0.533-0.003-0.808-0.01c-0.274-0.004-0.531-0.006-0.776-0.006c-0.203,0-0.421,0.002-0.653,0.006
		c-0.234,0.007-0.468,0.01-0.702,0.01c-0.232,0-0.453,0.001-0.662,0.008c-0.207,0.004-0.383,0.007-0.523,0.007L97.113,41.909z"/>
	<path id="path6759" d="M107.602,27.813c0.213,0,0.449,0.002,0.707,0.008c0.259,0.005,0.521,0.008,0.783,0.008
		c0.265,0,0.527,0.003,0.793,0.008c0.264,0.005,0.502,0.008,0.716,0.008c0.396,0,1.174-0.007,2.337-0.017
		c1.161-0.011,2.753-0.015,4.771-0.015c-0.061,0.518-0.106,1.07-0.138,1.658c-0.03,0.588-0.051,1.203-0.061,1.842l-0.608,0.016
		c-0.093-0.537-0.193-0.983-0.305-1.339c-0.112-0.355-0.272-0.64-0.473-0.854c-0.203-0.212-0.469-0.362-0.791-0.448
		c-0.326-0.086-0.748-0.129-1.265-0.129h-1.948c-0.305,0-0.5,0.03-0.586,0.092c-0.086,0.061-0.131,0.219-0.131,0.473v5.586
		l4.918-0.152l0.106,0.106l-0.031,1.278c-0.923-0.082-1.796-0.142-2.616-0.176c-0.824-0.035-1.615-0.063-2.377-0.084v4.811
		c0,0.244,0.023,0.451,0.069,0.625c0.045,0.172,0.151,0.31,0.319,0.417c0.166,0.106,0.412,0.188,0.738,0.243
		c0.324,0.058,0.771,0.091,1.34,0.1l-0.031,0.548c-0.202,0-0.455-0.002-0.76-0.007c-0.306-0.007-0.625-0.008-0.959-0.008
		c-0.336,0-0.66-0.003-0.976-0.01c-0.315-0.004-0.578-0.006-0.792-0.006c-0.172,0-0.375,0.002-0.609,0.006
		c-0.232,0.007-0.471,0.01-0.715,0.01c-0.242,0-0.482,0.001-0.715,0.008c-0.234,0.004-0.438,0.007-0.609,0.007l-0.045-0.518
		c0.426-0.031,0.769-0.079,1.026-0.146c0.259-0.066,0.46-0.169,0.603-0.312c0.143-0.144,0.237-0.332,0.289-0.572
		c0.051-0.237,0.075-0.544,0.075-0.92V29.716c0-0.243-0.022-0.446-0.067-0.608c-0.047-0.162-0.141-0.297-0.281-0.403
		c-0.144-0.106-0.353-0.185-0.633-0.236c-0.278-0.051-0.651-0.086-1.117-0.107L107.602,27.813z"/>
	<path id="path6761" d="M129.979,27.51c1.105,0,2.123,0.174,3.053,0.523c0.928,0.352,1.723,0.851,2.381,1.499
		c0.659,0.649,1.176,1.435,1.545,2.353c0.369,0.92,0.557,1.945,0.557,3.083c0,1.126-0.182,2.164-0.547,3.113
		c-0.366,0.948-0.879,1.769-1.538,2.458c-0.66,0.689-1.452,1.229-2.375,1.613c-0.925,0.387-1.949,0.58-3.074,0.58
		c-1.106,0-2.121-0.176-3.045-0.526c-0.924-0.349-1.72-0.851-2.383-1.499c-0.664-0.648-1.183-1.434-1.552-2.351
		c-0.371-0.918-0.558-1.946-0.558-3.084c0-1.125,0.183-2.162,0.55-3.112c0.363-0.948,0.877-1.769,1.536-2.458
		c0.659-0.691,1.451-1.229,2.374-1.614C127.827,27.701,128.853,27.51,129.979,27.51L129.979,27.51z M129.887,28.331
		c-0.698,0-1.372,0.114-2.016,0.343c-0.646,0.229-1.215,0.596-1.705,1.104c-0.494,0.508-0.887,1.166-1.182,1.972
		c-0.295,0.808-0.439,1.789-0.439,2.944c0,1.361,0.166,2.502,0.502,3.426c0.334,0.925,0.766,1.667,1.293,2.23
		c0.529,0.563,1.119,0.965,1.775,1.202c0.652,0.24,1.305,0.358,1.954,0.358c0.7,0,1.372-0.115,2.017-0.342
		c0.646-0.229,1.213-0.598,1.705-1.104c0.492-0.507,0.885-1.165,1.182-1.972c0.294-0.807,0.439-1.789,0.439-2.946
		c0-1.36-0.168-2.501-0.502-3.424c-0.334-0.923-0.767-1.667-1.293-2.231c-0.529-0.562-1.119-0.963-1.773-1.203
		C131.188,28.449,130.538,28.331,129.887,28.331L129.887,28.331z"/>
	<path id="path6763" d="M146.36,40.494c0,0.244,0.014,0.449,0.044,0.615c0.031,0.168,0.114,0.308,0.253,0.418
		c0.135,0.113,0.336,0.197,0.6,0.252c0.266,0.057,0.635,0.09,1.111,0.099l-0.031,0.548c-0.486,0-0.994-0.005-1.52-0.015
		c-0.526-0.011-1.036-0.017-1.523-0.017c-0.191,0-0.405,0.004-0.639,0.008c-0.232,0.006-0.468,0.009-0.701,0.009
		c-0.223,0-0.436,0.001-0.639,0.008c-0.204,0.004-0.376,0.007-0.518,0.007l-0.03-0.518c0.396-0.031,0.712-0.079,0.952-0.145
		c0.236-0.066,0.421-0.169,0.555-0.305c0.131-0.137,0.221-0.325,0.268-0.562c0.045-0.238,0.067-0.552,0.067-0.938V29.716
		c0-0.243-0.02-0.446-0.061-0.608s-0.125-0.297-0.252-0.403c-0.127-0.106-0.316-0.185-0.569-0.236
		c-0.255-0.051-0.595-0.086-1.02-0.107l0.028-0.547c0.163,0,0.355,0.002,0.572,0.008c0.219,0.004,0.452,0.007,0.708,0.007
		c0.252,0,0.513,0.003,0.777,0.008c0.263,0.005,0.517,0.008,0.76,0.008c0.406,0,0.813-0.028,1.226-0.085
		c0.411-0.055,0.829-0.083,1.255-0.083c0.609,0,1.219,0.052,1.827,0.151c0.608,0.102,1.159,0.285,1.651,0.548
		c0.492,0.265,0.892,0.622,1.195,1.073c0.305,0.451,0.457,1.027,0.457,1.728c0,0.468-0.074,0.908-0.222,1.324
		c-0.148,0.416-0.355,0.793-0.616,1.134c-0.265,0.342-0.576,0.641-0.937,0.897c-0.36,0.26-0.759,0.47-1.195,0.632
		c0.325,0.62,0.646,1.212,0.959,1.781c0.314,0.568,0.607,1.088,0.875,1.561c0.269,0.471,0.513,0.887,0.73,1.241
		c0.22,0.354,0.399,0.634,0.541,0.837c0.193,0.264,0.361,0.475,0.504,0.631c0.142,0.158,0.297,0.28,0.464,0.366
		c0.168,0.086,0.362,0.149,0.587,0.19c0.223,0.039,0.511,0.076,0.865,0.105l-0.029,0.548c-0.305,0-0.702-0.005-1.193-0.015
		c-0.494-0.01-0.969-0.016-1.425-0.016c-0.142,0-0.296,0.002-0.464,0.006c-0.167,0.007-0.322,0.014-0.463,0.023
		c-0.104-0.213-0.262-0.525-0.473-0.938c-0.215-0.41-0.469-0.887-0.762-1.43c-0.295-0.543-0.619-1.135-0.976-1.773
		c-0.355-0.639-0.726-1.288-1.11-1.948c-0.061-0.103-0.119-0.192-0.176-0.274c-0.057-0.082-0.126-0.149-0.213-0.205
		c-0.086-0.058-0.2-0.1-0.342-0.129c-0.145-0.031-0.329-0.045-0.563-0.045h-0.458c-0.08,0-0.18-0.004-0.296-0.009
		c-0.116-0.004-0.257-0.012-0.417-0.022v4.844H146.36z M146.36,34.921c0.079,0.011,0.16,0.019,0.242,0.022
		c0.081,0.006,0.161,0.009,0.244,0.009h0.486c1.196,0,2.123-0.274,2.778-0.822c0.652-0.549,0.979-1.437,0.979-2.665
		c0-1.035-0.311-1.79-0.936-2.267c-0.624-0.477-1.454-0.715-2.489-0.715c-0.313,0-0.561,0.028-0.738,0.084
		c-0.176,0.055-0.305,0.141-0.387,0.25c-0.082,0.113-0.133,0.25-0.152,0.412c-0.02,0.162-0.028,0.345-0.028,0.547v5.146H146.36z"/>
	<path id="path6765" d="M172.405,42.641c-0.265-0.375-0.527-0.738-0.793-1.09c-0.264-0.349-0.543-0.703-0.836-1.057
		l-8.205-9.729v8.998c0,0.478,0.027,0.851,0.084,1.118c0.057,0.271,0.159,0.474,0.313,0.609c0.152,0.138,0.357,0.229,0.615,0.274
		c0.26,0.045,0.597,0.084,1.013,0.113l-0.028,0.548c-0.324,0-0.708-0.005-1.149-0.015c-0.442-0.01-0.906-0.016-1.395-0.016
		c-0.386,0-0.788,0.006-1.21,0.016c-0.421,0.009-0.809,0.015-1.164,0.015l-0.046-0.518c0.405-0.04,0.739-0.089,1.005-0.146
		c0.264-0.055,0.475-0.169,0.631-0.342c0.159-0.173,0.268-0.431,0.328-0.777c0.062-0.345,0.092-0.822,0.092-1.431v-7.626
		c0-0.426-0.005-0.77-0.016-1.035c-0.01-0.265-0.033-0.479-0.066-0.648c-0.037-0.166-0.086-0.305-0.146-0.418
		c-0.063-0.109-0.143-0.227-0.243-0.35c-0.103-0.131-0.203-0.242-0.306-0.335c-0.102-0.091-0.219-0.167-0.35-0.229
		c-0.133-0.059-0.296-0.106-0.488-0.136c-0.192-0.03-0.432-0.057-0.715-0.076l0.03-0.549c0.121,0,0.302,0.002,0.541,0.008
		c0.237,0.005,0.505,0.008,0.798,0.008c0.295,0,0.6,0.003,0.914,0.008c0.313,0.005,0.608,0.008,0.883,0.008l9.787,11.461v-8.813
		c0-0.479-0.027-0.852-0.082-1.119c-0.057-0.269-0.16-0.473-0.313-0.609c-0.151-0.137-0.359-0.229-0.624-0.274
		c-0.263-0.045-0.604-0.084-1.021-0.114l0.03-0.548c0.325,0,0.711,0.005,1.157,0.017c0.445,0.011,0.914,0.015,1.4,0.015
		c0.191,0,0.395-0.002,0.607-0.008c0.214-0.006,0.425-0.01,0.632-0.015c0.209-0.005,0.406-0.011,0.595-0.015
		c0.188-0.006,0.354-0.008,0.494-0.008l0.016,0.517c-0.396,0.04-0.721,0.091-0.973,0.15c-0.256,0.063-0.457,0.18-0.604,0.353
		c-0.146,0.172-0.251,0.431-0.313,0.774c-0.061,0.346-0.091,0.822-0.091,1.432v11.447L172.405,42.641L172.405,42.641z"/>
	<path id="path6767" d="M179.911,41.909c0.395-0.031,0.715-0.079,0.957-0.146c0.244-0.066,0.437-0.168,0.572-0.304
		c0.139-0.137,0.23-0.325,0.28-0.563c0.053-0.237,0.077-0.551,0.077-0.937V29.716c0-0.243-0.021-0.446-0.062-0.608
		c-0.041-0.162-0.131-0.297-0.267-0.403c-0.139-0.106-0.332-0.185-0.588-0.236c-0.254-0.051-0.588-0.086-1.004-0.107l0.031-0.547
		c0.16,0,0.359,0.002,0.592,0.008c0.234,0.004,0.483,0.007,0.748,0.007c0.273,0,0.549,0.003,0.828,0.008
		c0.278,0.005,0.541,0.008,0.783,0.008c0.194,0,0.409-0.003,0.646-0.008c0.238-0.005,0.477-0.008,0.709-0.008
		c0.232,0,0.453-0.003,0.66-0.007c0.211-0.006,0.385-0.008,0.526-0.008l0.046,0.517c-0.396,0.029-0.715,0.079-0.959,0.145
		c-0.244,0.066-0.438,0.168-0.578,0.306c-0.143,0.136-0.238,0.323-0.289,0.563c-0.052,0.238-0.076,0.544-0.076,0.921v10.26
		c0,0.242,0.02,0.447,0.061,0.608c0.042,0.163,0.13,0.296,0.268,0.402c0.137,0.106,0.332,0.187,0.586,0.237
		c0.254,0.051,0.595,0.084,1.021,0.105l-0.03,0.548c-0.162,0-0.361-0.002-0.601-0.007c-0.24-0.007-0.495-0.008-0.771-0.008
		c-0.264,0-0.533-0.003-0.807-0.01c-0.273-0.004-0.531-0.006-0.775-0.006c-0.205,0-0.422,0.002-0.654,0.006
		c-0.233,0.007-0.467,0.01-0.701,0.01c-0.232,0-0.453,0.001-0.661,0.008c-0.209,0.004-0.384,0.007-0.524,0.007L179.911,41.909
		L179.911,41.909z"/>
	<path id="path6769" d="M199.043,37.023h-5.066l-1.173,2.998c-0.204,0.578-0.306,0.943-0.306,1.097
		c0,0.263,0.125,0.446,0.373,0.547c0.248,0.103,0.693,0.168,1.332,0.198l-0.045,0.549c-0.375,0-0.798-0.006-1.264-0.016
		c-0.469-0.011-0.928-0.018-1.387-0.018c-0.375,0-0.764,0.007-1.163,0.018c-0.401,0.01-0.788,0.016-1.165,0.016l-0.03-0.52
		c0.395-0.029,0.72-0.078,0.975-0.145c0.254-0.064,0.474-0.187,0.662-0.365c0.187-0.178,0.363-0.421,0.531-0.73
		c0.168-0.31,0.364-0.723,0.588-1.239l4.367-10.308c0.121-0.304,0.226-0.569,0.312-0.799c0.086-0.229,0.181-0.474,0.281-0.736
		l0.959-0.123c0.112,0.488,0.23,0.933,0.358,1.341c0.127,0.405,0.245,0.776,0.357,1.11l3.426,9.924
		c0.152,0.447,0.289,0.798,0.41,1.051c0.121,0.253,0.266,0.449,0.428,0.586c0.16,0.137,0.367,0.231,0.615,0.282
		c0.248,0.05,0.57,0.091,0.967,0.12l-0.045,0.55c-0.426,0-0.896-0.006-1.408-0.017c-0.514-0.01-1.027-0.017-1.545-0.017
		c-0.426,0-0.857,0.007-1.294,0.017c-0.436,0.011-0.868,0.017-1.294,0.017l-0.047-0.519c0.57-0.041,0.976-0.108,1.22-0.205
		c0.241-0.098,0.364-0.277,0.364-0.543c0-0.109-0.021-0.239-0.062-0.387c-0.041-0.146-0.092-0.313-0.151-0.494L199.043,37.023
		L199.043,37.023z M194.327,36.141h4.43l-2.041-6.027L194.327,36.141z"/>
</g>
<g id="g6771">
	<path id="path6773" d="M39.071,13.8V6.991c0-1.966-1.593-3.559-3.559-3.559h-5.607
		C34.315,5.29,37.702,8.818,39.071,13.8z"/>
	<path id="path6775" d="M30.793,42.518h4.72c1.966,0,3.559-1.593,3.559-3.559v-6.573
		C37.655,36.979,34.753,40.484,30.793,42.518z"/>
	<path id="path6777" d="M39.071,27.882V16.551h-8.125c-0.569-4.043-4.441-7.118-8.884-7.118
		c-8.027,0-11.045,6.833-11.045,13.951c0,6.775,3.018,13.608,11.045,13.608c5.468,0,8.542-3.758,9.226-9.111L39.071,27.882
		L39.071,27.882z"/>
	<path id="path6779" d="M3.545,31.947v7.012c0,1.966,1.593,3.559,3.56,3.559h5.791
		C8.456,40.364,5.265,36.606,3.545,31.947z"/>
	<path id="path6781" d="M13.97,3.432H7.104c-1.967,0-3.56,1.593-3.56,3.559v7.625C5.401,9.496,8.969,5.486,13.97,3.432z
		"/>
</g>
<g id="g7465">
	<path id="path7467" d="M47.577,10.931c0,0.974,0.121,1.889,0.365,2.748c0.242,0.857,0.612,1.604,1.104,2.238
		c0.492,0.634,1.109,1.137,1.851,1.507c0.74,0.371,1.612,0.555,2.618,0.555c0.547,0,1.072-0.077,1.575-0.229
		c0.502-0.151,0.946-0.401,1.331-0.746c0.366-0.325,0.682-0.723,0.952-1.194c0.269-0.473,0.534-1.028,0.799-1.667l0.609,0.151
		c-0.174,0.67-0.31,1.3-0.412,1.888c-0.101,0.589-0.188,1.218-0.258,1.888c-0.802,0.234-1.597,0.416-2.382,0.548
		c-0.787,0.131-1.576,0.198-2.367,0.198c-1.148,0-2.206-0.179-3.175-0.533c-0.969-0.356-1.807-0.857-2.513-1.507
		c-0.703-0.649-1.255-1.433-1.65-2.352c-0.396-0.918-0.594-1.94-0.594-3.067c0-1.298,0.238-2.434,0.715-3.402
		c0.479-0.969,1.125-1.778,1.941-2.428c0.817-0.649,1.764-1.134,2.839-1.454c1.076-0.32,2.212-0.48,3.41-0.48
		c0.619,0,1.281,0.046,1.987,0.138c0.704,0.091,1.362,0.218,1.971,0.38c-0.062,0.649-0.1,1.265-0.113,1.849
		c-0.017,0.584-0.023,1.2-0.023,1.849l-0.641,0.062c-0.04-0.599-0.16-1.119-0.357-1.561c-0.198-0.441-0.461-0.808-0.791-1.097
		c-0.33-0.29-0.713-0.502-1.148-0.638c-0.438-0.138-0.914-0.207-1.432-0.207c-1.015,0-1.909,0.161-2.679,0.481
		c-0.772,0.318-1.42,0.766-1.94,1.339c-0.523,0.573-0.919,1.264-1.188,2.069C47.711,9.066,47.577,9.957,47.577,10.931z"/>
	<path id="path7469" d="M65.814,13.594c0.009-0.07,0.015-0.157,0.015-0.259v-1.11c0-0.517-0.124-0.947-0.373-1.287
		c-0.248-0.339-0.646-0.508-1.195-0.508c-0.295,0-0.545,0.052-0.753,0.16c-0.208,0.106-0.381,0.245-0.519,0.417
		c-0.137,0.174-0.237,0.371-0.303,0.594c-0.067,0.223-0.1,0.456-0.1,0.7c-0.162,0.132-0.386,0.199-0.67,0.199
		c-0.234,0-0.454-0.054-0.661-0.16c-0.209-0.107-0.314-0.267-0.314-0.479c0-0.163,0.063-0.33,0.192-0.503
		c0.126-0.172,0.293-0.342,0.501-0.51c0.208-0.167,0.439-0.327,0.693-0.479c0.253-0.153,0.513-0.284,0.775-0.396
		c0.68-0.293,1.35-0.441,2.011-0.441c0.323,0,0.628,0.042,0.913,0.128c0.283,0.086,0.532,0.223,0.746,0.412
		c0.212,0.188,0.38,0.429,0.501,0.722c0.123,0.295,0.184,0.645,0.184,1.051c0,0.609-0.011,1.313-0.031,2.108
		c-0.02,0.796-0.029,1.682-0.029,2.655c0,0.397,0.076,0.706,0.228,0.931c0.152,0.223,0.364,0.334,0.641,0.334
		c0.242,0,0.507-0.087,0.791-0.26l0.274,0.412c-0.234,0.223-0.521,0.406-0.86,0.548c-0.342,0.142-0.684,0.212-1.028,0.212
		c-0.355,0-0.684-0.095-0.982-0.289c-0.299-0.192-0.5-0.522-0.601-0.99c-0.102,0.072-0.259,0.178-0.473,0.32
		c-0.212,0.143-0.456,0.288-0.73,0.434c-0.273,0.147-0.567,0.277-0.883,0.389c-0.314,0.111-0.613,0.168-0.898,0.168
		c-0.335,0-0.638-0.062-0.912-0.183c-0.274-0.123-0.51-0.287-0.707-0.495c-0.198-0.208-0.352-0.446-0.457-0.715
		c-0.107-0.27-0.161-0.555-0.161-0.861c0-0.517,0.149-0.961,0.449-1.331c0.3-0.371,0.692-0.658,1.181-0.86
		c0.354-0.142,0.829-0.286,1.423-0.435C64.284,13.79,64.991,13.676,65.814,13.594z M65.784,16.776c0-0.426,0.004-0.842,0.015-1.249
		c0.01-0.405,0.016-0.821,0.016-1.248c-0.276,0.031-0.552,0.068-0.831,0.114c-0.278,0.047-0.55,0.104-0.814,0.175
		c-0.264,0.072-0.512,0.163-0.745,0.274c-0.233,0.111-0.432,0.244-0.595,0.396c-0.253,0.225-0.38,0.514-0.38,0.868
		c0,0.425,0.108,0.787,0.328,1.08c0.218,0.295,0.556,0.442,1.011,0.442c0.326,0,0.665-0.076,1.021-0.229
		C65.164,17.249,65.489,17.041,65.784,16.776z"/>
	<path id="path7471" d="M75.024,18.511c-0.163,0-0.358-0.001-0.588-0.007c-0.229-0.006-0.474-0.008-0.738-0.008
		c-0.263,0-0.533-0.001-0.806-0.007c-0.274-0.004-0.533-0.007-0.777-0.007c-0.396,0-0.775,0.004-1.141,0.014
		c-0.365,0.011-0.69,0.015-0.975,0.015l-0.047-0.486c0.337-0.03,0.603-0.073,0.801-0.13c0.197-0.055,0.349-0.148,0.456-0.282
		c0.106-0.131,0.178-0.312,0.214-0.54c0.034-0.229,0.054-0.535,0.054-0.921V12.21c0-0.284-0.017-0.507-0.047-0.669
		c-0.03-0.163-0.094-0.292-0.19-0.389c-0.097-0.097-0.241-0.17-0.433-0.221c-0.194-0.051-0.453-0.102-0.777-0.153l-0.047-0.426
		c0.275-0.05,0.56-0.109,0.854-0.175c0.295-0.066,0.578-0.138,0.853-0.213c0.275-0.075,0.53-0.151,0.769-0.227
		c0.238-0.077,0.435-0.145,0.586-0.206l0.184,0.121c-0.051,0.316-0.082,0.627-0.091,0.937c-0.012,0.309-0.017,0.616-0.017,0.92
		c0.325-0.397,0.621-0.723,0.891-0.982c0.27-0.259,0.515-0.461,0.739-0.609c0.222-0.146,0.429-0.248,0.616-0.305
		c0.187-0.055,0.371-0.082,0.555-0.082c0.264,0,0.509,0.066,0.731,0.197c0.222,0.133,0.335,0.35,0.335,0.655
		c0,0.203-0.102,0.427-0.305,0.669c-0.203,0.244-0.473,0.467-0.807,0.67c-0.183-0.161-0.374-0.287-0.57-0.372
		c-0.199-0.087-0.414-0.129-0.646-0.129c-0.234,0-0.489,0.101-0.763,0.304c-0.273,0.203-0.497,0.498-0.669,0.883
		c-0.051,0.112-0.082,0.211-0.091,0.296c-0.012,0.087-0.017,0.201-0.017,0.343v3.729c0,0.244,0.018,0.439,0.054,0.585
		c0.035,0.147,0.119,0.262,0.252,0.343c0.131,0.081,0.323,0.136,0.577,0.168c0.254,0.029,0.604,0.055,1.05,0.075L75.024,18.511z"/>
	<path id="path7473" d="M85.587,16.823c-0.325,0.426-0.66,0.768-1.004,1.026c-0.345,0.259-0.674,0.46-0.99,0.601
		c-0.313,0.142-0.604,0.239-0.867,0.289c-0.264,0.051-0.472,0.077-0.623,0.077c-0.631,0-1.209-0.117-1.736-0.352
		c-0.527-0.232-0.981-0.552-1.363-0.959c-0.38-0.405-0.675-0.879-0.883-1.422c-0.208-0.544-0.312-1.12-0.312-1.728
		c0-0.681,0.124-1.312,0.374-1.896c0.248-0.583,0.578-1.092,0.989-1.529c0.41-0.437,0.884-0.778,1.423-1.028
		c0.537-0.248,1.092-0.372,1.659-0.372c0.456,0,0.89,0.073,1.301,0.22c0.412,0.147,0.771,0.357,1.073,0.631
		c0.306,0.274,0.549,0.604,0.73,0.989c0.184,0.386,0.274,0.817,0.274,1.294v0.213l-0.014,0.214
		c-0.052,0.274-0.194,0.411-0.428,0.411h-5.754c0.01,0.7,0.117,1.298,0.319,1.796c0.203,0.498,0.465,0.903,0.784,1.217
		c0.319,0.315,0.677,0.546,1.073,0.693c0.396,0.147,0.787,0.22,1.172,0.22c0.416,0,0.813-0.072,1.188-0.213
		c0.376-0.141,0.771-0.42,1.188-0.836L85.587,16.823z M83.334,12.818c0.203,0,0.337-0.039,0.397-0.114
		c0.059-0.076,0.091-0.205,0.091-0.389c0-0.274-0.046-0.533-0.138-0.775c-0.092-0.244-0.223-0.457-0.396-0.64
		c-0.173-0.183-0.386-0.325-0.64-0.426c-0.254-0.102-0.537-0.153-0.853-0.153c-0.244,0-0.487,0.055-0.73,0.168
		c-0.243,0.112-0.472,0.274-0.685,0.486c-0.214,0.214-0.398,0.474-0.556,0.784c-0.158,0.31-0.268,0.663-0.328,1.058h3.838V12.818z"
		/>
	<path id="path7475" d="M94.782,16.823c-0.325,0.426-0.66,0.768-1.005,1.026c-0.346,0.259-0.675,0.46-0.989,0.601
		c-0.314,0.142-0.604,0.239-0.868,0.289c-0.265,0.051-0.472,0.077-0.624,0.077c-0.63,0-1.207-0.117-1.734-0.352
		c-0.529-0.232-0.983-0.552-1.363-0.959c-0.381-0.405-0.675-0.879-0.883-1.422c-0.209-0.544-0.312-1.12-0.312-1.728
		c0-0.681,0.124-1.312,0.372-1.896c0.249-0.583,0.578-1.092,0.989-1.529c0.412-0.437,0.886-0.778,1.423-1.028
		c0.539-0.248,1.092-0.372,1.66-0.372c0.456,0,0.891,0.073,1.301,0.22c0.411,0.147,0.77,0.357,1.074,0.631
		c0.304,0.274,0.547,0.604,0.729,0.989c0.184,0.386,0.274,0.817,0.274,1.294v0.213l-0.015,0.214
		c-0.052,0.274-0.193,0.411-0.426,0.411H88.63c0.01,0.7,0.116,1.298,0.32,1.796c0.202,0.498,0.463,0.903,0.782,1.217
		c0.321,0.315,0.678,0.546,1.075,0.693c0.396,0.147,0.785,0.22,1.171,0.22c0.416,0,0.813-0.072,1.188-0.213
		c0.377-0.141,0.771-0.42,1.187-0.836L94.782,16.823z M92.529,12.818c0.202,0,0.335-0.039,0.396-0.114
		c0.061-0.075,0.091-0.205,0.091-0.389c0-0.274-0.046-0.533-0.137-0.775c-0.091-0.244-0.224-0.457-0.396-0.64
		c-0.172-0.183-0.386-0.325-0.639-0.426c-0.256-0.102-0.539-0.153-0.854-0.153c-0.244,0-0.486,0.055-0.73,0.168
		c-0.244,0.112-0.473,0.274-0.686,0.486c-0.213,0.214-0.397,0.474-0.556,0.784c-0.155,0.31-0.266,0.663-0.327,1.058h3.838V12.818z"
		/>
	<path id="path7477" d="M101.206,18.511c-0.162,0-0.357-0.001-0.586-0.007c-0.229-0.006-0.474-0.008-0.738-0.008
		c-0.264,0-0.532-0.001-0.807-0.007c-0.275-0.004-0.533-0.007-0.777-0.007c-0.395,0-0.775,0.004-1.142,0.014
		c-0.364,0.011-0.689,0.015-0.973,0.015l-0.047-0.486c0.335-0.03,0.602-0.073,0.799-0.13c0.198-0.055,0.35-0.148,0.458-0.282
		c0.105-0.131,0.176-0.312,0.212-0.54c0.035-0.229,0.054-0.535,0.054-0.921V12.21c0-0.284-0.016-0.507-0.046-0.669
		c-0.031-0.163-0.094-0.292-0.19-0.389c-0.096-0.097-0.242-0.17-0.434-0.221c-0.193-0.051-0.452-0.102-0.777-0.153l-0.045-0.426
		c0.273-0.05,0.558-0.109,0.852-0.175c0.295-0.066,0.58-0.138,0.854-0.213c0.274-0.075,0.529-0.151,0.768-0.227
		c0.24-0.077,0.436-0.145,0.588-0.206l0.183,0.121c-0.052,0.316-0.081,0.627-0.092,0.937c-0.01,0.309-0.016,0.616-0.016,0.92
		c0.325-0.397,0.621-0.723,0.892-0.982c0.268-0.259,0.514-0.461,0.737-0.609c0.223-0.146,0.429-0.248,0.617-0.305
		c0.188-0.055,0.372-0.082,0.556-0.082c0.263,0,0.507,0.066,0.729,0.197c0.224,0.133,0.335,0.35,0.335,0.655
		c0,0.203-0.102,0.427-0.305,0.669c-0.202,0.244-0.471,0.467-0.806,0.67c-0.184-0.161-0.373-0.287-0.571-0.372
		c-0.197-0.087-0.414-0.129-0.646-0.129c-0.234,0-0.488,0.101-0.761,0.304c-0.275,0.203-0.497,0.498-0.67,0.883
		c-0.052,0.112-0.081,0.211-0.092,0.296c-0.01,0.087-0.016,0.201-0.016,0.343v3.729c0,0.244,0.018,0.439,0.053,0.585
		c0.035,0.147,0.121,0.262,0.252,0.343c0.131,0.081,0.323,0.136,0.579,0.168c0.253,0.029,0.604,0.055,1.05,0.075L101.206,18.511z"/>
	<path id="path7479" d="M112.7,10.931c0,0.974,0.12,1.889,0.363,2.748c0.244,0.857,0.611,1.604,1.104,2.238
		c0.492,0.634,1.109,1.137,1.85,1.507c0.74,0.371,1.613,0.555,2.617,0.555c0.55,0,1.074-0.077,1.576-0.229
		c0.502-0.151,0.945-0.401,1.332-0.746c0.364-0.325,0.684-0.723,0.951-1.194c0.27-0.473,0.536-1.028,0.799-1.667l0.608,0.151
		c-0.171,0.67-0.31,1.3-0.411,1.888c-0.101,0.589-0.188,1.218-0.259,1.888c-0.801,0.234-1.597,0.416-2.381,0.548
		c-0.787,0.131-1.576,0.198-2.367,0.198c-1.146,0-2.205-0.179-3.175-0.533c-0.969-0.356-1.805-0.857-2.512-1.507
		c-0.705-0.649-1.256-1.433-1.652-2.352c-0.395-0.918-0.594-1.94-0.594-3.067c0-1.298,0.238-2.434,0.717-3.402
		c0.476-0.969,1.122-1.778,1.941-2.428c0.814-0.649,1.762-1.134,2.838-1.454c1.076-0.32,2.213-0.48,3.41-0.48
		c0.619,0,1.281,0.046,1.985,0.138c0.705,0.091,1.362,0.218,1.972,0.38c-0.061,0.649-0.098,1.265-0.113,1.849
		c-0.016,0.584-0.023,1.2-0.023,1.849l-0.639,0.062c-0.041-0.599-0.159-1.119-0.357-1.561c-0.199-0.441-0.462-0.808-0.791-1.097
		c-0.33-0.29-0.714-0.502-1.15-0.638c-0.438-0.138-0.912-0.207-1.43-0.207c-1.017,0-1.908,0.161-2.68,0.481
		c-0.771,0.318-1.418,0.766-1.941,1.339c-0.521,0.573-0.918,1.264-1.188,2.069C112.834,9.066,112.7,9.957,112.7,10.931L112.7,10.931
		z"/>
	<path id="path7481" d="M125.79,14.265c0-0.65,0.119-1.265,0.357-1.842c0.238-0.579,0.562-1.082,0.975-1.507
		c0.412-0.426,0.895-0.763,1.453-1.013c0.559-0.247,1.157-0.372,1.797-0.372c0.69,0,1.318,0.119,1.889,0.357
		c0.566,0.238,1.052,0.563,1.453,0.974c0.4,0.411,0.709,0.893,0.928,1.447c0.219,0.553,0.328,1.144,0.328,1.773
		c0,0.66-0.118,1.276-0.357,1.849c-0.238,0.573-0.563,1.073-0.976,1.499c-0.409,0.426-0.898,0.765-1.462,1.013
		c-0.563,0.248-1.163,0.373-1.803,0.373c-0.689,0-1.316-0.12-1.881-0.358c-0.563-0.238-1.045-0.563-1.445-0.974
		c-0.401-0.412-0.711-0.893-0.928-1.447C125.899,15.485,125.79,14.894,125.79,14.265z M130.569,18.07
		c0.446,0,0.829-0.106,1.148-0.32c0.32-0.212,0.584-0.486,0.793-0.821c0.207-0.336,0.359-0.711,0.455-1.127
		c0.098-0.416,0.146-0.833,0.146-1.249c0-0.486-0.054-0.984-0.159-1.492c-0.106-0.507-0.275-0.966-0.511-1.376
		c-0.233-0.412-0.536-0.748-0.905-1.013c-0.369-0.264-0.818-0.396-1.348-0.396c-0.456,0-0.846,0.104-1.164,0.313
		c-0.318,0.209-0.582,0.479-0.783,0.813c-0.203,0.335-0.354,0.711-0.449,1.127c-0.096,0.416-0.146,0.832-0.146,1.248
		c0,0.467,0.056,0.954,0.168,1.461c0.11,0.508,0.284,0.969,0.519,1.385c0.232,0.417,0.535,0.762,0.903,1.036
		C129.608,17.933,130.051,18.07,130.569,18.07L130.569,18.07z"/>
	<path id="path7483" d="M139.657,2.178c-0.041,0.265-0.076,0.566-0.107,0.905c-0.029,0.34-0.051,0.682-0.066,1.028
		c-0.018,0.345-0.025,0.67-0.029,0.974c-0.007,0.305-0.009,0.548-0.009,0.73v10.96c0,0.244,0.015,0.439,0.046,0.585
		c0.029,0.147,0.102,0.262,0.213,0.343c0.11,0.081,0.272,0.136,0.486,0.168c0.214,0.029,0.51,0.055,0.885,0.075l-0.031,0.563
		c-0.324,0-0.713-0.004-1.164-0.015c-0.453-0.01-0.922-0.014-1.408-0.014c-0.396,0-0.787,0.004-1.172,0.014
		c-0.387,0.011-0.721,0.015-1.006,0.015l-0.045-0.486c0.346-0.03,0.621-0.073,0.83-0.13c0.207-0.055,0.366-0.148,0.479-0.282
		c0.111-0.131,0.186-0.312,0.22-0.54c0.036-0.228,0.056-0.535,0.056-0.921V4.781c0-0.295-0.017-0.526-0.047-0.693
		c-0.029-0.168-0.102-0.296-0.211-0.389c-0.113-0.091-0.273-0.161-0.482-0.213c-0.207-0.049-0.488-0.106-0.844-0.167l-0.045-0.441
		c0.305-0.062,0.617-0.126,0.942-0.198c0.325-0.07,0.638-0.142,0.937-0.212c0.299-0.072,0.571-0.142,0.813-0.214
		c0.244-0.071,0.442-0.138,0.594-0.198L139.657,2.178L139.657,2.178z"/>
	<path id="path7485" d="M145.243,2.178c-0.039,0.265-0.074,0.566-0.104,0.905c-0.03,0.34-0.054,0.682-0.069,1.028
		c-0.015,0.345-0.025,0.67-0.029,0.974c-0.006,0.305-0.008,0.548-0.008,0.73v10.96c0,0.244,0.014,0.439,0.047,0.585
		c0.029,0.147,0.101,0.262,0.211,0.343c0.111,0.081,0.274,0.136,0.488,0.168c0.213,0.029,0.508,0.055,0.883,0.075l-0.029,0.563
		c-0.326,0-0.715-0.004-1.164-0.015c-0.452-0.01-0.922-0.014-1.408-0.014c-0.396,0-0.788,0.004-1.173,0.014
		c-0.388,0.011-0.722,0.015-1.005,0.015l-0.047-0.486c0.346-0.03,0.623-0.073,0.83-0.13c0.209-0.055,0.369-0.148,0.479-0.282
		c0.11-0.131,0.185-0.312,0.222-0.54c0.033-0.228,0.053-0.535,0.053-0.921V4.781c0-0.295-0.017-0.526-0.047-0.693
		c-0.029-0.168-0.102-0.296-0.211-0.389c-0.111-0.091-0.271-0.161-0.479-0.213c-0.208-0.049-0.491-0.106-0.847-0.167l-0.045-0.441
		c0.305-0.062,0.617-0.126,0.942-0.198c0.325-0.07,0.64-0.142,0.938-0.212c0.299-0.072,0.57-0.142,0.813-0.214
		c0.243-0.071,0.442-0.138,0.595-0.198L145.243,2.178L145.243,2.178z"/>
	<path id="path7487" d="M155.474,16.823c-0.325,0.426-0.66,0.768-1.005,1.026c-0.346,0.259-0.676,0.46-0.989,0.601
		c-0.315,0.142-0.605,0.239-0.868,0.289c-0.265,0.051-0.472,0.077-0.624,0.077c-0.63,0-1.209-0.117-1.733-0.352
		c-0.529-0.232-0.983-0.552-1.363-0.959c-0.38-0.405-0.676-0.879-0.883-1.422c-0.209-0.544-0.313-1.12-0.313-1.728
		c0-0.681,0.124-1.312,0.372-1.896c0.249-0.583,0.578-1.092,0.989-1.529c0.412-0.437,0.886-0.778,1.425-1.028
		c0.537-0.248,1.09-0.372,1.658-0.372c0.457,0,0.892,0.073,1.301,0.22c0.411,0.147,0.77,0.357,1.074,0.631
		c0.304,0.274,0.548,0.604,0.729,0.989c0.183,0.385,0.273,0.817,0.273,1.294v0.213l-0.016,0.214
		c-0.051,0.274-0.192,0.411-0.426,0.411h-5.755c0.011,0.7,0.117,1.298,0.32,1.796c0.202,0.498,0.464,0.903,0.782,1.217
		c0.32,0.315,0.679,0.546,1.074,0.693c0.396,0.147,0.785,0.22,1.172,0.22c0.416,0,0.813-0.072,1.188-0.213
		c0.375-0.141,0.771-0.42,1.187-0.836L155.474,16.823L155.474,16.823z M153.221,12.818c0.201,0,0.335-0.039,0.396-0.114
		c0.061-0.075,0.092-0.205,0.092-0.389c0-0.274-0.047-0.533-0.139-0.775c-0.091-0.244-0.224-0.457-0.396-0.64
		c-0.172-0.183-0.387-0.325-0.641-0.426c-0.254-0.102-0.537-0.153-0.852-0.153c-0.244,0-0.487,0.055-0.73,0.168
		c-0.244,0.112-0.471,0.274-0.685,0.486c-0.214,0.214-0.397,0.474-0.558,0.784c-0.154,0.31-0.266,0.663-0.326,1.058h3.838V12.818z"
		/>
	<path id="path7489" d="M157.178,13.138c0-0.507,0.104-0.981,0.313-1.423c0.209-0.442,0.486-0.824,0.838-1.149
		c0.35-0.325,0.754-0.579,1.211-0.761c0.455-0.183,0.938-0.274,1.444-0.274c0.812,0,1.513,0.172,2.103,0.517
		c0.11,0.072,0.215,0.12,0.312,0.145c0.097,0.026,0.211,0.038,0.343,0.038c0.11-0.009,0.191-0.016,0.244-0.016l2.328-0.167
		l0.105,0.122l-0.09,0.883h-2.146c0.416,0.539,0.624,1.133,0.624,1.782c0,0.598-0.12,1.126-0.358,1.583
		c-0.238,0.456-0.547,0.84-0.928,1.149c-0.381,0.309-0.803,0.543-1.264,0.7c-0.461,0.157-0.916,0.235-1.362,0.235
		c-0.395,0-0.817-0.051-1.265-0.151c-0.231,0.112-0.428,0.277-0.584,0.495c-0.16,0.218-0.237,0.423-0.237,0.616
		c0,0.142,0.054,0.266,0.159,0.374c0.107,0.107,0.238,0.194,0.396,0.266c0.157,0.072,0.323,0.123,0.502,0.153
		c0.178,0.03,0.338,0.045,0.479,0.045c0.396,0,0.809-0.008,1.239-0.022c0.432-0.017,0.834-0.023,1.211-0.023
		c0.404,0,0.813,0.037,1.218,0.114c0.405,0.076,0.772,0.212,1.104,0.411c0.329,0.199,0.596,0.469,0.801,0.813
		c0.201,0.344,0.304,0.781,0.304,1.309c0,0.639-0.142,1.24-0.427,1.804c-0.285,0.565-0.68,1.05-1.187,1.462
		c-0.509,0.411-1.113,0.736-1.82,0.974c-0.705,0.237-1.479,0.358-2.32,0.358c-0.437,0-0.885-0.06-1.348-0.176
		c-0.461-0.117-0.88-0.294-1.255-0.534c-0.377-0.238-0.684-0.537-0.922-0.896c-0.237-0.361-0.356-0.785-0.356-1.272
		c0-0.345,0.064-0.662,0.197-0.951c0.131-0.289,0.305-0.557,0.518-0.799c0.213-0.244,0.451-0.467,0.716-0.67
		c0.263-0.204,0.526-0.396,0.791-0.579c-0.416-0.153-0.774-0.355-1.072-0.609c-0.3-0.254-0.448-0.573-0.448-0.959
		c0-0.172,0.057-0.354,0.174-0.549c0.117-0.192,0.258-0.38,0.42-0.563c0.16-0.182,0.334-0.349,0.517-0.501
		c0.185-0.153,0.34-0.284,0.474-0.396C157.741,15.478,157.178,14.508,157.178,13.138z M161.243,19.806
		c-0.334,0-0.611,0.003-0.83,0.007c-0.219,0.006-0.398,0.022-0.539,0.054c-0.143,0.03-0.27,0.076-0.381,0.137
		c-0.113,0.061-0.229,0.142-0.351,0.244c-0.315,0.265-0.548,0.561-0.701,0.89c-0.151,0.33-0.23,0.673-0.23,1.028
		c0,0.416,0.103,0.766,0.305,1.05c0.204,0.284,0.464,0.515,0.777,0.693c0.314,0.178,0.664,0.306,1.051,0.387
		c0.385,0.082,0.762,0.123,1.127,0.123c0.455,0,0.887-0.048,1.294-0.145c0.403-0.096,0.76-0.25,1.063-0.463
		c0.305-0.213,0.547-0.486,0.723-0.821c0.18-0.335,0.268-0.736,0.268-1.204c0-0.426-0.091-0.78-0.271-1.064
		c-0.184-0.285-0.448-0.498-0.793-0.641c-0.295-0.131-0.619-0.211-0.975-0.236c-0.355-0.024-0.766-0.037-1.234-0.037L161.243,19.806
		L161.243,19.806z M161.137,15.832c0.324,0,0.604-0.076,0.836-0.228c0.234-0.153,0.423-0.352,0.57-0.595
		c0.147-0.243,0.256-0.517,0.328-0.821c0.071-0.304,0.106-0.604,0.106-0.898c0-0.365-0.038-0.733-0.115-1.104
		c-0.075-0.371-0.198-0.703-0.364-0.996c-0.168-0.295-0.386-0.534-0.654-0.715c-0.27-0.183-0.602-0.274-0.997-0.274
		c-0.334,0-0.618,0.073-0.853,0.221c-0.236,0.148-0.426,0.343-0.57,0.585c-0.148,0.244-0.254,0.516-0.319,0.816
		c-0.065,0.299-0.101,0.601-0.101,0.904c0,0.346,0.041,0.702,0.121,1.066c0.082,0.365,0.205,0.7,0.373,1.004
		c0.168,0.305,0.387,0.554,0.655,0.747C160.422,15.735,160.749,15.832,161.137,15.832L161.137,15.832z"/>
	<path id="path7491" d="M175.049,16.823c-0.325,0.426-0.659,0.768-1.004,1.026c-0.346,0.259-0.678,0.46-0.989,0.601
		c-0.315,0.142-0.605,0.239-0.868,0.289c-0.266,0.051-0.473,0.077-0.624,0.077c-0.63,0-1.207-0.117-1.735-0.352
		c-0.529-0.232-0.981-0.552-1.361-0.959c-0.381-0.405-0.676-0.879-0.885-1.422c-0.207-0.544-0.312-1.12-0.312-1.728
		c0-0.681,0.125-1.312,0.373-1.896c0.249-0.583,0.578-1.092,0.987-1.529c0.412-0.437,0.888-0.778,1.427-1.028
		c0.534-0.248,1.09-0.372,1.657-0.372c0.457,0,0.892,0.073,1.302,0.22c0.411,0.147,0.771,0.357,1.073,0.631
		c0.305,0.274,0.549,0.604,0.73,0.989c0.185,0.386,0.274,0.817,0.274,1.294v0.213l-0.016,0.214
		c-0.052,0.274-0.192,0.411-0.427,0.411h-5.755c0.012,0.7,0.118,1.298,0.318,1.796c0.205,0.498,0.467,0.903,0.785,1.217
		c0.32,0.315,0.678,0.546,1.072,0.693c0.396,0.147,0.788,0.22,1.174,0.22c0.416,0,0.812-0.072,1.188-0.213
		c0.376-0.141,0.771-0.42,1.188-0.836L175.049,16.823L175.049,16.823z M172.795,12.818c0.203,0,0.336-0.039,0.397-0.114
		c0.06-0.076,0.092-0.205,0.092-0.389c0-0.274-0.047-0.533-0.138-0.775c-0.091-0.244-0.224-0.457-0.396-0.64
		c-0.172-0.183-0.387-0.325-0.641-0.426c-0.255-0.102-0.537-0.153-0.854-0.153c-0.243,0-0.485,0.055-0.73,0.168
		c-0.243,0.112-0.471,0.274-0.685,0.486c-0.215,0.214-0.398,0.474-0.557,0.784c-0.158,0.31-0.268,0.663-0.326,1.058h3.836V12.818z"
		/>
</g>
<g id="g7493">
	<path id="path7495" d="M191.317,11.639c0,1.881-0.568,3.553-1.709,5.012c-1.141,1.46-2.322,2.189-3.547,2.189
		c-0.656,0-1.188-0.245-1.594-0.736c-0.404-0.491-0.606-1.259-0.606-2.304c0-0.706,0.157-1.519,0.474-2.44
		c0.317-0.92,0.728-1.685,1.229-2.292c0.113-0.137,0.244-0.303,0.391-0.498c0.43-0.561,0.94-1.031,1.533-1.413
		c0.592-0.38,1.194-0.57,1.811-0.57c0.568,0,1.048,0.237,1.436,0.711C191.122,9.772,191.317,10.553,191.317,11.639z M184.991,17.174
		c0,0.374,0.088,0.649,0.264,0.827c0.174,0.178,0.455,0.269,0.845,0.269c0.382,0,0.767-0.188,1.155-0.561
		c0.695-0.681,1.396-1.853,2.093-3.515c0.696-1.663,1.046-2.972,1.046-3.928c0-0.34-0.086-0.61-0.255-0.809
		c-0.171-0.198-0.365-0.299-0.585-0.299c-0.479,0-0.979,0.28-1.496,0.839c-0.885,0.941-1.646,2.239-2.286,3.894
		C185.25,15.235,184.991,16.331,184.991,17.174z"/>
	<path id="path7497" d="M187.071,23.231c0.163-0.072,0.284-0.108,0.365-0.108c0.275,0,0.52,0.187,0.729,0.559
		c0.092,0.161,0.18,0.295,0.27,0.4c0.202,0.202,0.422,0.304,0.654,0.304c0.343,0,0.765-0.194,1.267-0.585
		c0.423-0.445,0.817-1.087,1.188-1.921c0.367-0.832,0.693-1.729,0.979-2.687l1.191-4.1c0.072-0.252,0.145-0.528,0.22-0.828
		l0.802-2.872c0.221-0.729,0.387-1.244,0.5-1.543c-0.146-0.008-0.257-0.012-0.328-0.012c-0.058,0-0.188,0.005-0.39,0.018
		c-0.203,0.012-0.681,0.018-1.436,0.018c0.024-0.227,0.049-0.428,0.072-0.607c0.172-0.017,0.354-0.029,0.549-0.037l1.762-0.061
		c0.357-1.192,0.765-2.311,1.218-3.357c0.284-0.625,0.688-1.252,1.217-1.886c0.405-0.478,0.888-0.864,1.447-1.155
		c0.268-0.146,0.612-0.219,1.032-0.219c0.522,0,0.939,0.14,1.254,0.419c0.318,0.28,0.476,0.571,0.476,0.87
		c0,0.194-0.065,0.364-0.194,0.506c-0.129,0.142-0.275,0.213-0.438,0.213c-0.212,0-0.398-0.069-0.566-0.208
		c-0.166-0.138-0.285-0.353-0.359-0.645c-0.057-0.21-0.133-0.361-0.23-0.449c-0.104-0.082-0.243-0.122-0.413-0.122
		c-0.162,0-0.305,0.032-0.427,0.097c-0.253,0.129-0.528,0.377-0.827,0.743c-0.211,0.267-0.438,0.661-0.675,1.179
		c-0.24,0.519-0.501,1.258-0.778,2.22c-0.281,0.961-0.438,1.554-0.469,1.781l0.328,0.025l1.145-0.025
		c0.049,0,0.174,0.008,0.377,0.025c0.008,0.073,0.013,0.129,0.013,0.169c0,0.123-0.023,0.273-0.073,0.451l-2.007,0.073l-0.401,1.363
		l-1.021,3.673c-0.057,0.194-0.105,0.353-0.146,0.474c-0.147,0.381-0.235,0.668-0.269,0.864l-0.898,2.882
		c-0.398,1.112-0.794,2.027-1.188,2.749c-0.395,0.722-0.883,1.371-1.467,1.947c-0.43,0.413-0.883,0.718-1.361,0.912
		c-0.309,0.129-0.71,0.193-1.204,0.193c-0.681,0-1.153-0.105-1.417-0.32c-0.264-0.213-0.396-0.469-0.396-0.768
		C186.743,23.565,186.853,23.359,187.071,23.231L187.071,23.231z"/>
</g>
<g id="g7499">
	<path id="path7501" d="M47.577,34.846c0,0.975,0.121,1.891,0.365,2.748c0.242,0.858,0.612,1.604,1.104,2.238
		c0.492,0.634,1.109,1.137,1.851,1.507c0.74,0.371,1.612,0.556,2.618,0.556c0.547,0,1.072-0.076,1.575-0.23
		c0.502-0.151,0.946-0.401,1.331-0.746c0.366-0.325,0.682-0.722,0.952-1.194c0.269-0.473,0.534-1.027,0.799-1.668l0.609,0.151
		c-0.174,0.671-0.31,1.301-0.412,1.888c-0.101,0.59-0.188,1.219-0.258,1.889c-0.802,0.233-1.597,0.418-2.382,0.549
		c-0.787,0.132-1.576,0.197-2.367,0.197c-1.148,0-2.206-0.179-3.175-0.532c-0.969-0.354-1.807-0.857-2.513-1.507
		c-0.703-0.649-1.255-1.435-1.65-2.353c-0.396-0.919-0.594-1.94-0.594-3.067c0-1.299,0.238-2.433,0.715-3.402
		c0.479-0.969,1.125-1.777,1.941-2.428c0.817-0.649,1.764-1.135,2.839-1.455c1.076-0.319,2.212-0.477,3.41-0.477
		c0.619,0,1.281,0.046,1.987,0.136c0.704,0.092,1.362,0.219,1.971,0.381c-0.062,0.649-0.1,1.267-0.113,1.849
		c-0.017,0.584-0.023,1.2-0.023,1.851l-0.641,0.062c-0.04-0.599-0.16-1.119-0.357-1.562c-0.198-0.44-0.461-0.806-0.791-1.096
		c-0.33-0.289-0.713-0.501-1.148-0.639c-0.438-0.139-0.914-0.205-1.432-0.205c-1.015,0-1.909,0.16-2.679,0.479
		c-0.772,0.318-1.42,0.767-1.94,1.34c-0.523,0.572-0.919,1.264-1.188,2.068C47.711,32.981,47.577,33.872,47.577,34.846
		L47.577,34.846z"/>
	<path id="path7503" d="M72.527,37.023h-5.069l-1.171,2.998c-0.204,0.578-0.305,0.943-0.305,1.097
		c0,0.263,0.124,0.446,0.372,0.547c0.249,0.103,0.693,0.168,1.332,0.198l-0.045,0.549c-0.377,0-0.797-0.006-1.264-0.016
		c-0.468-0.011-0.929-0.018-1.385-0.018c-0.377,0-0.764,0.007-1.165,0.018c-0.402,0.01-0.789,0.016-1.164,0.016l-0.031-0.52
		c0.396-0.029,0.721-0.078,0.974-0.145c0.254-0.064,0.476-0.187,0.663-0.365c0.187-0.177,0.365-0.421,0.532-0.73
		c0.169-0.31,0.363-0.723,0.587-1.239l4.368-10.308c0.122-0.304,0.226-0.569,0.313-0.799c0.085-0.229,0.181-0.474,0.281-0.736
		l0.959-0.123c0.111,0.488,0.231,0.933,0.357,1.341c0.127,0.405,0.246,0.776,0.357,1.11l3.426,9.924
		c0.152,0.447,0.289,0.798,0.412,1.051c0.121,0.253,0.263,0.449,0.426,0.586c0.161,0.137,0.367,0.231,0.615,0.282
		c0.248,0.05,0.57,0.091,0.968,0.12l-0.047,0.55c-0.426,0-0.895-0.006-1.408-0.017c-0.512-0.01-1.026-0.017-1.545-0.017
		c-0.426,0-0.857,0.007-1.294,0.017c-0.436,0.011-0.868,0.017-1.292,0.017l-0.047-0.519c0.568-0.041,0.974-0.108,1.218-0.205
		c0.242-0.098,0.365-0.277,0.365-0.543c0-0.109-0.021-0.239-0.061-0.387c-0.042-0.146-0.091-0.313-0.153-0.494L72.527,37.023
		L72.527,37.023z M67.808,36.141h4.431l-2.039-6.027L67.808,36.141z"/>
	<path id="path7505" d="M87.582,28.331c-0.416,0.03-0.752,0.079-1.011,0.146c-0.26,0.065-0.461,0.166-0.603,0.305
		c-0.142,0.136-0.238,0.326-0.288,0.57c-0.053,0.243-0.077,0.553-0.077,0.929v9.665c0,0.347,0.021,0.631,0.061,0.854
		c0.042,0.223,0.131,0.399,0.268,0.525c0.138,0.127,0.329,0.215,0.579,0.266c0.248,0.051,0.58,0.076,0.996,0.076h0.806
		c0.59,0,1.072-0.047,1.447-0.144c0.374-0.098,0.692-0.26,0.95-0.486c0.26-0.229,0.485-0.531,0.678-0.905
		c0.193-0.376,0.405-0.838,0.64-1.385l0.579,0.137c-0.082,0.295-0.157,0.608-0.229,0.942c-0.07,0.336-0.137,0.666-0.197,0.988
		c-0.061,0.326-0.113,0.631-0.153,0.916c-0.041,0.283-0.066,0.517-0.075,0.699h-2.314c-0.671,0-1.248-0.002-1.734-0.007
		c-0.489-0.007-0.905-0.008-1.25-0.008c-0.344,0-0.645-0.003-0.898-0.009c-0.253-0.004-0.477-0.008-0.669-0.008h-0.532
		c-0.204,0-0.428,0.004-0.67,0.008c-0.244,0.006-0.487,0.009-0.73,0.009c-0.245,0-0.475,0.001-0.694,0.008
		c-0.218,0.004-0.396,0.007-0.538,0.007l-0.046-0.517c0.416-0.031,0.752-0.079,1.012-0.145c0.259-0.066,0.458-0.168,0.602-0.305
		c0.143-0.137,0.238-0.325,0.29-0.563c0.049-0.238,0.075-0.551,0.075-0.938V29.716c0-0.243-0.023-0.446-0.068-0.608
		c-0.047-0.162-0.138-0.297-0.273-0.403c-0.138-0.106-0.336-0.185-0.595-0.236c-0.258-0.051-0.606-0.086-1.042-0.107l0.046-0.547
		c0.162,0,0.362,0.002,0.601,0.008c0.238,0.004,0.494,0.007,0.769,0.007c0.275,0,0.553,0.003,0.836,0.008
		c0.286,0.005,0.549,0.008,0.793,0.008c0.192,0,0.412-0.003,0.654-0.008c0.244-0.005,0.488-0.008,0.73-0.008
		c0.244,0,0.474-0.003,0.693-0.007c0.217-0.006,0.397-0.008,0.54-0.008L87.582,28.331L87.582,28.331z"/>
	<path id="path7507" d="M97.113,41.909c0.396-0.031,0.715-0.079,0.959-0.146c0.242-0.066,0.435-0.168,0.57-0.304
		c0.137-0.137,0.23-0.325,0.281-0.563C98.975,40.659,99,40.346,99,39.96V29.716c0-0.243-0.02-0.446-0.061-0.608
		c-0.04-0.162-0.13-0.297-0.267-0.403c-0.138-0.106-0.332-0.185-0.587-0.236c-0.253-0.051-0.588-0.086-1.004-0.107l0.031-0.547
		c0.161,0,0.359,0.002,0.593,0.008c0.234,0.004,0.482,0.007,0.745,0.007c0.275,0,0.552,0.003,0.831,0.008
		c0.278,0.005,0.54,0.008,0.784,0.008c0.192,0,0.407-0.003,0.646-0.008c0.239-0.005,0.476-0.008,0.709-0.008
		c0.232,0,0.453-0.003,0.661-0.007c0.208-0.006,0.383-0.008,0.526-0.008l0.046,0.517c-0.397,0.029-0.717,0.079-0.96,0.145
		c-0.243,0.066-0.437,0.168-0.578,0.306c-0.142,0.136-0.238,0.323-0.289,0.563c-0.052,0.238-0.076,0.544-0.076,0.921v10.26
		c0,0.242,0.02,0.447,0.061,0.608c0.04,0.163,0.13,0.296,0.266,0.402c0.139,0.106,0.334,0.187,0.588,0.237
		c0.253,0.051,0.592,0.084,1.02,0.105l-0.03,0.548c-0.163,0-0.364-0.002-0.602-0.007c-0.239-0.007-0.495-0.008-0.769-0.008
		c-0.265,0-0.533-0.003-0.808-0.01c-0.274-0.004-0.531-0.006-0.776-0.006c-0.203,0-0.421,0.002-0.653,0.006
		c-0.234,0.007-0.468,0.01-0.702,0.01c-0.232,0-0.453,0.001-0.662,0.008c-0.207,0.004-0.383,0.007-0.523,0.007L97.113,41.909z"/>
	<path id="path7509" d="M107.602,27.813c0.213,0,0.449,0.002,0.707,0.008c0.259,0.005,0.521,0.008,0.783,0.008
		c0.265,0,0.527,0.003,0.793,0.008c0.264,0.005,0.502,0.008,0.716,0.008c0.396,0,1.174-0.007,2.337-0.017
		c1.161-0.011,2.753-0.015,4.771-0.015c-0.061,0.518-0.106,1.07-0.138,1.658c-0.03,0.588-0.051,1.203-0.061,1.842l-0.608,0.016
		c-0.093-0.537-0.193-0.983-0.305-1.339c-0.112-0.355-0.272-0.64-0.473-0.854c-0.203-0.212-0.469-0.362-0.791-0.448
		c-0.326-0.086-0.748-0.129-1.265-0.129h-1.948c-0.305,0-0.5,0.03-0.586,0.092c-0.086,0.061-0.131,0.219-0.131,0.473v5.586
		l4.918-0.152l0.106,0.106l-0.031,1.278c-0.923-0.082-1.796-0.142-2.616-0.176c-0.824-0.035-1.615-0.063-2.377-0.084v4.811
		c0,0.244,0.023,0.451,0.069,0.625c0.045,0.172,0.151,0.31,0.319,0.417c0.166,0.106,0.412,0.188,0.738,0.243
		c0.324,0.058,0.771,0.091,1.34,0.1l-0.031,0.548c-0.202,0-0.455-0.002-0.76-0.007c-0.306-0.007-0.625-0.008-0.959-0.008
		c-0.336,0-0.66-0.003-0.976-0.01c-0.315-0.004-0.578-0.006-0.792-0.006c-0.172,0-0.375,0.002-0.609,0.006
		c-0.232,0.007-0.471,0.01-0.715,0.01c-0.242,0-0.482,0.001-0.715,0.008c-0.234,0.004-0.438,0.007-0.609,0.007l-0.045-0.518
		c0.426-0.031,0.769-0.079,1.026-0.146c0.259-0.066,0.46-0.169,0.603-0.312c0.143-0.144,0.237-0.332,0.289-0.572
		c0.051-0.237,0.075-0.544,0.075-0.92V29.716c0-0.243-0.022-0.446-0.067-0.608c-0.047-0.162-0.141-0.297-0.281-0.403
		c-0.144-0.106-0.353-0.185-0.633-0.236c-0.278-0.051-0.651-0.086-1.117-0.107L107.602,27.813z"/>
	<path id="path7511" d="M129.979,27.51c1.105,0,2.123,0.174,3.053,0.523c0.928,0.352,1.723,0.851,2.381,1.499
		c0.659,0.649,1.176,1.435,1.545,2.353c0.369,0.92,0.557,1.945,0.557,3.083c0,1.126-0.182,2.164-0.547,3.113
		c-0.366,0.948-0.879,1.769-1.538,2.458c-0.66,0.689-1.452,1.229-2.375,1.613c-0.925,0.387-1.949,0.58-3.074,0.58
		c-1.106,0-2.121-0.176-3.045-0.526c-0.924-0.349-1.72-0.851-2.383-1.499c-0.664-0.648-1.183-1.434-1.552-2.351
		c-0.371-0.918-0.558-1.946-0.558-3.084c0-1.125,0.183-2.162,0.55-3.112c0.363-0.948,0.877-1.769,1.536-2.458
		c0.659-0.691,1.451-1.229,2.374-1.614C127.827,27.701,128.853,27.51,129.979,27.51L129.979,27.51z M129.887,28.331
		c-0.698,0-1.372,0.114-2.016,0.343c-0.646,0.229-1.215,0.596-1.705,1.104c-0.494,0.508-0.887,1.166-1.182,1.972
		c-0.295,0.808-0.439,1.789-0.439,2.944c0,1.361,0.166,2.502,0.502,3.426c0.334,0.925,0.766,1.667,1.293,2.23
		c0.529,0.563,1.119,0.965,1.775,1.202c0.652,0.24,1.305,0.358,1.954,0.358c0.7,0,1.372-0.115,2.017-0.342
		c0.646-0.229,1.213-0.598,1.705-1.104c0.492-0.507,0.885-1.165,1.182-1.972c0.294-0.807,0.439-1.789,0.439-2.946
		c0-1.36-0.168-2.501-0.502-3.424c-0.334-0.923-0.767-1.667-1.293-2.231c-0.529-0.562-1.119-0.963-1.773-1.203
		C131.188,28.449,130.538,28.331,129.887,28.331L129.887,28.331z"/>
	<path id="path7513" d="M146.36,40.494c0,0.244,0.014,0.449,0.044,0.615c0.031,0.168,0.114,0.308,0.253,0.418
		c0.135,0.113,0.336,0.197,0.6,0.252c0.266,0.057,0.635,0.09,1.111,0.099l-0.031,0.548c-0.486,0-0.994-0.005-1.52-0.015
		c-0.526-0.011-1.036-0.017-1.523-0.017c-0.191,0-0.405,0.004-0.639,0.008c-0.232,0.006-0.468,0.009-0.701,0.009
		c-0.223,0-0.436,0.001-0.639,0.008c-0.204,0.004-0.376,0.007-0.518,0.007l-0.03-0.518c0.396-0.031,0.712-0.079,0.952-0.145
		c0.236-0.066,0.421-0.169,0.555-0.305c0.131-0.137,0.221-0.325,0.268-0.562c0.045-0.238,0.067-0.552,0.067-0.938V29.716
		c0-0.243-0.02-0.446-0.061-0.608s-0.125-0.297-0.252-0.403c-0.127-0.106-0.316-0.185-0.569-0.236
		c-0.255-0.051-0.595-0.086-1.02-0.107l0.028-0.547c0.163,0,0.355,0.002,0.572,0.008c0.219,0.004,0.452,0.007,0.708,0.007
		c0.252,0,0.513,0.003,0.777,0.008c0.263,0.005,0.517,0.008,0.76,0.008c0.406,0,0.813-0.028,1.226-0.085
		c0.411-0.055,0.829-0.083,1.255-0.083c0.609,0,1.219,0.052,1.827,0.151c0.608,0.102,1.159,0.285,1.651,0.548
		c0.492,0.265,0.892,0.622,1.195,1.073c0.305,0.451,0.457,1.027,0.457,1.728c0,0.468-0.074,0.908-0.222,1.324
		c-0.148,0.416-0.355,0.793-0.616,1.134c-0.265,0.342-0.576,0.641-0.937,0.897c-0.36,0.26-0.759,0.47-1.195,0.632
		c0.325,0.62,0.646,1.212,0.959,1.781c0.314,0.568,0.607,1.088,0.875,1.561c0.269,0.471,0.513,0.887,0.73,1.241
		c0.22,0.354,0.399,0.634,0.541,0.837c0.193,0.264,0.361,0.475,0.504,0.631c0.142,0.158,0.297,0.28,0.464,0.366
		c0.168,0.086,0.362,0.149,0.587,0.19c0.223,0.039,0.511,0.076,0.865,0.105l-0.029,0.548c-0.305,0-0.702-0.005-1.193-0.015
		c-0.494-0.01-0.969-0.016-1.425-0.016c-0.142,0-0.296,0.002-0.464,0.006c-0.167,0.007-0.322,0.014-0.463,0.023
		c-0.104-0.213-0.262-0.525-0.473-0.938c-0.215-0.41-0.469-0.887-0.762-1.43c-0.295-0.543-0.619-1.135-0.976-1.773
		c-0.355-0.639-0.726-1.288-1.11-1.948c-0.061-0.103-0.119-0.192-0.176-0.274c-0.057-0.082-0.126-0.149-0.213-0.205
		c-0.086-0.058-0.2-0.1-0.342-0.129c-0.145-0.031-0.329-0.045-0.563-0.045h-0.458c-0.08,0-0.18-0.004-0.296-0.009
		c-0.116-0.004-0.257-0.012-0.417-0.022v4.844H146.36z M146.36,34.921c0.079,0.011,0.16,0.019,0.242,0.022
		c0.081,0.006,0.161,0.009,0.244,0.009h0.486c1.196,0,2.123-0.274,2.778-0.822c0.652-0.549,0.979-1.437,0.979-2.665
		c0-1.035-0.311-1.79-0.936-2.267c-0.624-0.477-1.454-0.715-2.489-0.715c-0.313,0-0.561,0.028-0.738,0.084
		c-0.176,0.055-0.305,0.141-0.387,0.25c-0.082,0.113-0.133,0.25-0.152,0.412c-0.02,0.162-0.028,0.345-0.028,0.547v5.146H146.36z"/>
	<path id="path7515" d="M172.405,42.641c-0.265-0.375-0.527-0.738-0.793-1.09c-0.264-0.349-0.543-0.703-0.836-1.057
		l-8.205-9.729v8.998c0,0.478,0.027,0.851,0.084,1.118c0.057,0.271,0.159,0.474,0.313,0.609c0.152,0.138,0.357,0.229,0.615,0.274
		c0.26,0.045,0.597,0.084,1.013,0.113l-0.028,0.548c-0.324,0-0.708-0.005-1.149-0.015c-0.442-0.01-0.906-0.016-1.395-0.016
		c-0.386,0-0.788,0.006-1.21,0.016c-0.421,0.009-0.809,0.015-1.164,0.015l-0.046-0.518c0.405-0.04,0.739-0.089,1.005-0.146
		c0.264-0.055,0.475-0.169,0.631-0.342c0.159-0.173,0.268-0.431,0.328-0.777c0.062-0.345,0.092-0.822,0.092-1.431v-7.626
		c0-0.426-0.005-0.77-0.016-1.035c-0.01-0.265-0.033-0.479-0.066-0.648c-0.037-0.166-0.086-0.305-0.146-0.418
		c-0.063-0.109-0.143-0.227-0.243-0.35c-0.103-0.131-0.203-0.242-0.306-0.335c-0.102-0.091-0.219-0.167-0.35-0.229
		c-0.133-0.059-0.296-0.106-0.488-0.136c-0.192-0.03-0.432-0.057-0.715-0.076l0.03-0.549c0.121,0,0.302,0.002,0.541,0.008
		c0.237,0.005,0.505,0.008,0.798,0.008c0.295,0,0.6,0.003,0.914,0.008c0.313,0.005,0.608,0.008,0.883,0.008l9.787,11.461v-8.813
		c0-0.479-0.027-0.852-0.082-1.119c-0.057-0.269-0.16-0.473-0.313-0.609c-0.151-0.137-0.359-0.229-0.624-0.274
		c-0.263-0.045-0.604-0.084-1.021-0.114l0.03-0.548c0.325,0,0.711,0.005,1.157,0.017c0.445,0.011,0.914,0.015,1.4,0.015
		c0.191,0,0.395-0.002,0.607-0.008c0.214-0.006,0.425-0.01,0.632-0.015c0.209-0.005,0.406-0.011,0.595-0.015
		c0.188-0.006,0.354-0.008,0.494-0.008l0.016,0.517c-0.396,0.04-0.721,0.091-0.973,0.15c-0.256,0.063-0.457,0.18-0.604,0.353
		c-0.146,0.172-0.251,0.431-0.313,0.774c-0.061,0.346-0.091,0.822-0.091,1.432v11.447L172.405,42.641L172.405,42.641z"/>
	<path id="path7517" d="M179.911,41.909c0.395-0.031,0.715-0.079,0.957-0.146c0.244-0.066,0.437-0.168,0.572-0.304
		c0.139-0.137,0.23-0.325,0.28-0.563c0.053-0.237,0.077-0.551,0.077-0.937V29.716c0-0.243-0.021-0.446-0.062-0.608
		c-0.041-0.162-0.131-0.297-0.267-0.403c-0.139-0.106-0.332-0.185-0.588-0.236c-0.254-0.051-0.588-0.086-1.004-0.107l0.031-0.547
		c0.16,0,0.359,0.002,0.592,0.008c0.234,0.004,0.483,0.007,0.748,0.007c0.273,0,0.549,0.003,0.828,0.008
		c0.278,0.005,0.541,0.008,0.783,0.008c0.194,0,0.409-0.003,0.646-0.008c0.238-0.005,0.477-0.008,0.709-0.008
		c0.232,0,0.453-0.003,0.66-0.007c0.211-0.006,0.385-0.008,0.526-0.008l0.046,0.517c-0.396,0.029-0.715,0.079-0.959,0.145
		c-0.244,0.066-0.438,0.168-0.578,0.306c-0.143,0.136-0.238,0.323-0.289,0.563c-0.052,0.238-0.076,0.544-0.076,0.921v10.26
		c0,0.242,0.02,0.447,0.061,0.608c0.042,0.163,0.13,0.296,0.268,0.402c0.137,0.106,0.332,0.187,0.586,0.237
		c0.254,0.051,0.595,0.084,1.021,0.105l-0.03,0.548c-0.162,0-0.361-0.002-0.601-0.007c-0.24-0.007-0.495-0.008-0.771-0.008
		c-0.264,0-0.533-0.003-0.807-0.01c-0.273-0.004-0.531-0.006-0.775-0.006c-0.205,0-0.422,0.002-0.654,0.006
		c-0.233,0.007-0.467,0.01-0.701,0.01c-0.232,0-0.453,0.001-0.661,0.008c-0.209,0.004-0.384,0.007-0.524,0.007L179.911,41.909
		L179.911,41.909z"/>
	<path id="path7519" d="M199.043,37.023h-5.066l-1.173,2.998c-0.204,0.578-0.306,0.943-0.306,1.097
		c0,0.263,0.125,0.446,0.373,0.547c0.248,0.103,0.693,0.168,1.332,0.198l-0.045,0.549c-0.375,0-0.798-0.006-1.264-0.016
		c-0.469-0.011-0.928-0.018-1.387-0.018c-0.375,0-0.764,0.007-1.163,0.018c-0.401,0.01-0.788,0.016-1.165,0.016l-0.03-0.52
		c0.395-0.029,0.72-0.078,0.975-0.145c0.254-0.064,0.474-0.187,0.662-0.365c0.187-0.178,0.363-0.421,0.531-0.73
		c0.168-0.31,0.364-0.723,0.588-1.239l4.367-10.308c0.121-0.304,0.226-0.569,0.312-0.799c0.086-0.229,0.181-0.474,0.281-0.736
		l0.959-0.123c0.112,0.488,0.23,0.933,0.358,1.341c0.127,0.405,0.245,0.776,0.357,1.11l3.426,9.924
		c0.152,0.447,0.289,0.798,0.41,1.051c0.121,0.253,0.266,0.449,0.428,0.586c0.16,0.137,0.367,0.231,0.615,0.282
		c0.248,0.05,0.57,0.091,0.967,0.12l-0.045,0.55c-0.426,0-0.896-0.006-1.408-0.017c-0.514-0.01-1.027-0.017-1.545-0.017
		c-0.426,0-0.857,0.007-1.294,0.017c-0.436,0.011-0.868,0.017-1.294,0.017l-0.047-0.519c0.57-0.041,0.976-0.108,1.22-0.205
		c0.241-0.098,0.364-0.277,0.364-0.543c0-0.109-0.021-0.239-0.062-0.387c-0.041-0.146-0.092-0.313-0.151-0.494L199.043,37.023
		L199.043,37.023z M194.327,36.141h4.43l-2.041-6.027L194.327,36.141z"/>
</g>
<g id="g7521">
	<path id="path7523" d="M39.071,13.8V6.991c0-1.966-1.593-3.559-3.559-3.559h-5.607
		C34.315,5.29,37.702,8.818,39.071,13.8z"/>
	<path id="path7525" d="M30.793,42.518h4.72c1.966,0,3.559-1.593,3.559-3.559v-6.573
		C37.655,36.979,34.753,40.484,30.793,42.518z"/>
	<path id="path7527" d="M39.071,27.882V16.551h-8.125c-0.569-4.043-4.441-7.118-8.884-7.118
		c-8.027,0-11.045,6.833-11.045,13.951c0,6.775,3.018,13.608,11.045,13.608c5.468,0,8.542-3.758,9.226-9.111L39.071,27.882
		L39.071,27.882z"/>
	<path id="path7529" d="M3.545,31.947v7.012c0,1.966,1.593,3.559,3.56,3.559h5.791
		C8.456,40.364,5.265,36.606,3.545,31.947z"/>
	<path id="path7531" d="M13.97,3.432H7.104c-1.967,0-3.56,1.593-3.56,3.559v7.625C5.401,9.496,8.969,5.486,13.97,3.432z
		"/>
</g>
</svg>
