<svg version="1.1" id="Layer_1" xmlns="http://www.w3.org/2000/svg" xmlns:xlink="http://www.w3.org/1999/xlink" x="0px" y="0px"
	 viewBox="0 0 114.566 92.413" enable-background="new 0 0 114.566 92.413" xml:space="preserve">
<path d="M113.907,84.759c0.19,3.26,2.205,6.94-1.916,7.654c-1.115-1.881-4.522-1.182-5.124-3.126
	c-0.545-0.327,0.099,0.563-0.466,0.711c-8.623-3.487-19.665-5.352-29.019-7.451c-3.283-0.735-6.541-1.622-9.541-2.138
	c-1.122-0.192-2.604,0.368-3.483-0.434c-1.167-1.062,0.173-3.372,0.596-3.914c6.009-1.743,13.187-8.581,17.438-12.712
	c-0.024-1.04-0.747-1.951-1.629-2.983c-3.627-4.238-7.987-7.345-11.97-10.552c-3.391-2.727-7.859-4.483-11.998-6.322
	c-3.934-1.747-8.034-3.154-11.94-4.132c-8.581-2.148-17.314-1.877-25.458-1.764c-3.965,0.057-7.773-0.017-11.395,0.412
	c-0.453,0.37-0.888,0.304-1.34,0.674c-0.854-0.533-1.764,0.341-2.634,0.185c-0.816,0.227-0.746,0.875-1.503,1.105
	c-0.878-0.85-1.249-0.659-2.108-1.981c0.376-1.457-0.47-1.74,0.258-2.762C0.693,34.791,0.31,34.338,0,33.888
	C1.399,24.269,4.499,14.717,2.487,4.96c0.449-0.845,0.747-2.347,1.425-2.714c1.705,0.963,1.768,3.3,1.837,5.034
	c0.141,3.386-0.373,6.337-0.542,9.752c-0.084,1.607-0.4,3.405-0.656,5.371c-0.179,1.391,0.083,2.878-0.165,4.078
	c-0.304,1.494-1.022,2.705-1.192,4.182c-0.15,1.307,0.337,2.621-0.445,3.774c6.856-0.457,14.516-1.373,21.754-0.43
	c1.885-0.791,3.825-0.044,5.977,0.097c1.886,0.12,3.951-0.301,5.989-0.193c1.554,0.074,3.344,0.749,5.208,1.086
	c1.786,0.316,3.437,0.371,5.067,0.935c8.447,2.902,17.339,5.896,25.462,12.413c4.145,3.329,7.978,6.348,11.401,10.237
	c1.713,1.948,5.48,4.082,2.779,6.969c-0.725,0.05-1.469,0.396-2.201,0.348c-3.224,3.369-9.532,8.402-13.593,11.41
	c4.224,1.198,8.723,1.618,13.304,2.875c0.552,0.028,0.369,0.361,0.699,0.758c0.063-0.234-0.163-0.493,0.175-0.723
	c0.939,0.665,2.445,0.537,3.903,0.888c1.426,0.345,2.801,1.051,3.901,0.889c2.807,1.549,6.458,1.43,8.786,2.836
	c2.588,0.185,6.341,1.596,9.389,2.278c0.082-14.001,0.323-27.996-4.122-42.18c-2.702,3.239-8.5,5.162-9.943,7.765
	c-0.833,0.757-1.277,1.328-2.681,1.35c-1.589-2.179-1.589-4.89-2.908-7.412c-4.986-9.539-17.266-22.213-27.294-28.388
	C47.168,7.996,27.845,3.953,11.297,3.567c-0.655,0.568-1.274,0.252-1.923,0.651c-0.8,0.562,0.26,1.092-0.781,1.281
	C7.355,5.436,7.791,3.667,6.88,4.555c0.259-0.531-0.705-0.728-1.093-1.795c1.247-0.356,0.167-1.264,1.4-2.133
	c1.001-0.701,4.352-0.624,6.152-0.624c4.99,0.003,10.475,1.149,15.087,2.071c0.988,0.199,1.971,0.227,2.621,0.107
	c3.206,1.589,6.759,1.491,10.101,2.744c3.238,1.22,6.539,2.417,9.924,3.467c0.412,0.661,0.86,0.411,1.27,1.072
	c9.961,3.621,19.61,9.538,27.149,17.588c5.989,6.395,11.948,13.353,16.042,21.658c2.618-2.052,7.804-3.293,10.49-6.868
	c0.199-0.266-0.342-0.409-0.267-0.594c0.08-0.192,1.134-0.532,0.933-1.421c0.462-0.449,0.879,0.078,1.341-0.675
	c0.711,0.898,0.707,0.982,1.548,1.376c-0.288,0.359-0.078,1.019-0.059,1.457c0.184,4.013,1.909,9.103,2.66,13.529
	C113.772,64.907,113.344,74.998,113.907,84.759z"/>
</svg>
